<?xml version="1.0" encoding="utf-8"?>
<!-- Generator: Adobe Illustrator 18.1.1, SVG Export Plug-In . SVG Version: 6.00 Build 0)  -->
<svg version="1.1" id="Layer_1" xmlns="http://www.w3.org/2000/svg" xmlns:xlink="http://www.w3.org/1999/xlink" x="0px" y="0px"
	 viewBox="0 0 56 17" enable-background="new 0 0 56 17" xml:space="preserve">
<g>
	<g>
		<path fill-rule="evenodd" clip-rule="evenodd" fill="#E32213" d="M13.1,12c-0.7,2.9-3.3,5-6.5,5C3,17,0,14,0,10.3
			c0-3.7,3-6.6,6.6-6.6c3.1,0,5.7,2.2,6.5,5h-2.7c-0.6-1.4-2-2.4-3.7-2.4c-2.2,0-4.1,1.8-4.1,4c0,2.2,1.8,4.1,4.1,4.1
			c1.7,0,3.1-1,3.7-2.4H13.1"/>
	</g>
	<path fill-rule="evenodd" clip-rule="evenodd" fill="#E32213" d="M20.2,14.3c-2.2,0-4-1.8-4-4c0-2.2,1.8-4,4-4c2.2,0,4,1.8,4,4
		C24.2,12.5,22.4,14.3,20.2,14.3 M20.2,3.7c-3.7,0-6.6,3-6.7,6.6c0,3.7,3,6.7,6.7,6.7c3.7,0,6.7-3,6.7-6.7
		C26.9,6.6,23.9,3.7,20.2,3.7z"/>
	<rect x="27.7" fill="#E32213" width="2.9" height="17"/>
	<path fill-rule="evenodd" clip-rule="evenodd" fill="#E32213" d="M38,6c1.7,0,3.1,1.2,3.3,2.7l-6.5,0l-0.1,0C34.9,7.2,36.3,6,38,6
		 M38.3,14.4c-2,0-3.7-1.5-3.7-3.3c0-0.1,0-0.1,0-0.2h9.6c0-5.3-2.7-7.3-6.1-7.3c-2.6,0-6.3,1.7-6.3,6.6c0,4.1,3,6.7,6.3,6.7
		c2.9,0,5.3-1.7,5.9-4.6h-2.7C40.9,13.7,39.8,14.4,38.3,14.4z"/>
	<g>
		<path fill-rule="evenodd" clip-rule="evenodd" fill="#E32213" d="M52.3,7.8h2.5c0,0,0.1-2.3-1.8-3.4c0,0-0.9-0.8-3.4-0.8
			c0,0-2.5,0-3.7,1.1c0,0-1.2,0.9-1.2,2.6c0,0-0.2,1.7,1.4,2.7c0,0,1.3,0.6,2.6,1c0,0,2.1,0.6,2.5,0.8c0,0,1.8,0.8,0.7,1.9
			c0,0-0.5,0.7-2.1,0.7c0,0-2.9,0.1-2.9-2.1h-2.6c0,0-0.2,2.3,1.7,3.6c0,0,1.3,0.9,3.7,0.8c0,0,2.4,0,3.6-0.9c0,0,1.6-1.2,1.6-3.1
			c0,0,0.2-2-2.3-3.2c0,0-2.6-0.9-3.2-1c0,0-2.5-0.6-2-1.8c0,0,0.1-0.9,2.1-0.9c0,0,1.4,0,2.1,0.8C51.9,6.7,52.3,7.2,52.3,7.8"/>
	</g>
</g>
</svg>
