<?xml version="1.0" encoding="utf-8"?>
<!-- Generator: Adobe Illustrator 18.1.1, SVG Export Plug-In . SVG Version: 6.00 Build 0)  -->
<svg version="1.1" id="Layer_1" xmlns="http://www.w3.org/2000/svg" xmlns:xlink="http://www.w3.org/1999/xlink" x="0px" y="0px"
	 viewBox="0 0 68 25" enable-background="new 0 0 68 25" xml:space="preserve">
<g id="XMLID_6_">
	<g id="XMLID_12_">
		<path id="XMLID_57_" fill="#C1C0BE" d="M38.5,4.6c-2.2-1-4.8-1.8-7.2-2.3c-2.6-0.5-5.6-0.8-7.6-0.8C14.6,1.3,9.3,3.3,6.1,6
			c-4.9,4.1-4.6,8.9-4.6,9.8c0,5.1,2.8,8.4,6.2,10.6c2.7,1.8,6.1,3,7.4,3.4c2.9,1,6,2.1,7.3,2.8c1.1,0.6,1.6,1.2,1.6,1.2
			c-0.4,0.4-0.6,0.7-0.7,1.1c-0.3,0.6-0.6,1.7-0.3,2.5c0.2,0.5,0.8,1.1,1.7,1c1-0.1,1.6-1.3,1.3-2.5c-0.2-0.8-0.6-1.5-1.3-2.2
			c0,0,1.2-1.2,4.5-2.7c2.9-1.3,8.5-3,11.5-4.9c3.4-2.1,6.1-5,6.1-10.3C46.7,10.6,43.5,6.8,38.5,4.6L38.5,4.6z M24.9,36.2
			c0,0.9-0.4,1.1-0.7,1.1c-0.3,0-0.6-0.2-0.6-1c0-0.9,0.6-1.8,0.6-1.8S24.9,35.2,24.9,36.2L24.9,36.2z M42.4,23.6
			c-1.6,1.6-4,3.2-7.6,4.6c-6.8,2.6-9.3,4-10.5,5.3l-0.1,0.1l-0.1-0.1c-0.5-0.4-1-0.7-1.7-1.1c-2.1-1.2-6.8-2.9-9.5-4.1
			c-1.6-0.7-6.7-2.9-8.8-7.5c-1.1-2.4-1.2-4.7-0.9-6.5c0.2-1.1,0.9-5.1,5.9-7.9c3.1-1.7,7.8-3,14.8-2.8c2.8,0.1,7.4,0.4,12.1,2
			c4.8,1.7,9.4,4.8,9.4,10.5C45.3,17.5,45.5,20.4,42.4,23.6L42.4,23.6z"/>
		<g>
			<polygon id="XMLID_32_" fill="#C1C0BE" points="25.8,27.4 26,27.4 26,28.6 25.7,28.6 25.7,27.7 25.3,27.8 25.2,27.6 25.8,27.4
							"/>
			<g>
				<g>
					<g>
						<g>
							<polygon id="XMLID_56_" fill="#C1C0BE" points="14.9,25.7 14.9,26.3 14.6,26.3 14.6,24.7 15.8,24.7 15.8,25 14.9,25
								14.9,25.4 15.7,25.4 15.7,25.7 14.9,25.7 							"/>
							<path id="XMLID_53_" fill="#C1C0BE" d="M16.6,24.7H17l0.6,1.7h-0.3L17.2,26h-0.8l-0.1,0.3h-0.3L16.6,24.7L16.6,24.7z
								 M16.5,25.7h0.6L16.8,25L16.5,25.7L16.5,25.7z"/>
							<polygon id="XMLID_52_" fill="#C1C0BE" points="19.5,25.2 19,25.9 18.9,25.9 18.4,25.2 18.4,26.3 18,26.3 18,24.7 18.3,24.7
								18.9,25.4 19.6,24.7 19.9,24.7 19.9,26.3 19.5,26.3 19.5,25.2 							"/>
							<polygon id="XMLID_51_" fill="#C1C0BE" points="20.6,24.7 20.9,24.7 20.9,26.3 20.6,26.3 20.6,24.7 							"/>
							<polygon id="XMLID_50_" fill="#C1C0BE" points="21.6,26.3 21.6,24.7 22,24.7 22,26 22.8,26 22.8,26.3 21.6,26.3 							"/>
							<polygon id="XMLID_49_" fill="#C1C0BE" points="23.3,25.7 22.7,24.7 22.7,24.7 23.1,24.7 23.5,25.3 23.9,24.7 24.3,24.7
								24.3,24.7 23.7,25.7 23.7,26.3 23.3,26.3 23.3,25.7 							"/>
							<path id="XMLID_46_" fill="#C1C0BE" d="M25.4,24.7h0.7c0.5,0,0.9,0.3,0.9,0.8c0,0.5-0.4,0.8-0.9,0.8h-0.7V24.7L25.4,24.7z
								 M25.8,24.9V26h0.4c0.3,0,0.5-0.2,0.5-0.5c0-0.3-0.2-0.5-0.5-0.5H25.8L25.8,24.9z"/>
							<path id="XMLID_43_" fill="#C1C0BE" d="M27.9,24.7h0.4l0.6,1.7h-0.3L28.4,26h-0.8l-0.1,0.3h-0.3L27.9,24.7L27.9,24.7z
								 M27.8,25.7h0.6L28.1,25L27.8,25.7L27.8,25.7z"/>
							<polygon id="XMLID_42_" fill="#C1C0BE" points="29.3,24.7 29.6,24.7 29.6,26.3 29.3,26.3 29.3,24.7 							"/>
							<path id="XMLID_39_" fill="#C1C0BE" d="M30.3,24.7h0.7c0.3,0,0.7,0.1,0.7,0.5c0,0.3-0.2,0.5-0.5,0.5c0.2,0.2,0.3,0.3,0.5,0.3
								c0.1,0,0.1,0,0.2,0l0,0.3c-0.1,0-0.2,0.1-0.3,0.1c-0.4,0-0.6-0.5-0.9-0.6h-0.2v0.6h-0.3V24.7L30.3,24.7z M30.7,24.9v0.5h0.4
								c0.2,0,0.3-0.1,0.3-0.2c0-0.2-0.1-0.2-0.3-0.2H30.7L30.7,24.9z"/>
							<polygon id="XMLID_38_" fill="#C1C0BE" points="32.8,25.7 32.2,24.7 32.2,24.7 32.5,24.7 33,25.3 33.4,24.7 33.8,24.7
								33.8,24.7 33.2,25.7 33.2,26.3 32.8,26.3 32.8,25.7 							"/>
						</g>
						<path id="XMLID_37_" fill="#C1C0BE" d="M18.1,28.1c-0.2-0.1-0.3-0.2-0.3-0.3c0-0.2,0.2-0.4,0.5-0.4c0.2,0,0.4,0,0.5,0.1
							l-0.1,0.2c-0.1-0.1-0.2-0.1-0.4-0.1c-0.2,0-0.2,0.1-0.2,0.1c0,0.1,0,0.1,0.1,0.1l0.2,0.1c0.2,0.1,0.3,0.2,0.3,0.3
							c0,0.2-0.2,0.4-0.5,0.4c-0.2,0-0.4-0.1-0.4-0.1l0.1-0.2c0.1,0.1,0.2,0.1,0.4,0.1c0.2,0,0.2-0.1,0.2-0.1c0-0.1-0.1-0.1-0.2-0.1
							L18.1,28.1L18.1,28.1z"/>
						<polygon id="XMLID_36_" fill="#C1C0BE" points="19.2,27.4 19.5,27.4 19.5,28.6 19.2,28.6 19.2,27.4 						"/>
						<polygon id="XMLID_35_" fill="#C1C0BE" points="20.3,27.8 20.3,28.6 20,28.6 20,27.4 20.2,27.4 20.9,28.2 20.9,27.4
							21.2,27.4 21.2,28.6 21,28.6 20.3,27.8 						"/>
						<path id="XMLID_34_" fill="#C1C0BE" d="M22.8,28.4c-0.1,0.1-0.3,0.2-0.5,0.2c-0.4,0-0.6-0.2-0.6-0.6c0-0.4,0.3-0.6,0.6-0.6
							c0.3,0,0.5,0.2,0.5,0.5l-0.2,0c0-0.2-0.1-0.3-0.3-0.3c-0.2,0-0.4,0.1-0.4,0.4c0,0.3,0.2,0.4,0.4,0.4c0.2,0,0.3-0.1,0.4-0.2
							L22.8,28.4L22.8,28.4z"/>
						<polygon id="XMLID_33_" fill="#C1C0BE" points="23.3,28.6 23.3,27.4 24.3,27.4 24.3,27.6 23.5,27.6 23.5,27.9 24.2,27.9
							24.2,28.1 23.5,28.1 23.5,28.4 24.3,28.4 24.3,28.6 23.3,28.6 						"/>
						<path id="XMLID_29_" fill="#C1C0BE" d="M26.6,28.3c0.1,0,0.2,0.1,0.3,0.1c0.2,0,0.3-0.1,0.3-0.3c-0.1,0.1-0.2,0.1-0.3,0.1
							c-0.3,0-0.5-0.2-0.5-0.4c0-0.3,0.2-0.4,0.5-0.4c0.4,0,0.6,0.3,0.6,0.6c0,0.4-0.2,0.6-0.6,0.6c-0.2,0-0.4-0.1-0.4-0.1
							L26.6,28.3L26.6,28.3z M27.2,27.9c0-0.2-0.1-0.3-0.3-0.3c-0.1,0-0.2,0.1-0.2,0.2c0,0.1,0.1,0.2,0.2,0.2
							C27.1,28,27.2,27.9,27.2,27.9L27.2,27.9z"/>
						<polygon id="XMLID_28_" fill="#C1C0BE" points="28.4,27.4 28.6,27.4 28.6,28.6 28.3,28.6 28.3,27.7 27.9,27.8 27.8,27.6
							28.4,27.4 						"/>
						<path id="XMLID_25_" fill="#C1C0BE" d="M29.6,27.3c0.4,0,0.6,0.3,0.6,0.6c0,0.4-0.2,0.6-0.6,0.6c-0.4,0-0.6-0.3-0.6-0.6
							C29.1,27.6,29.2,27.3,29.6,27.3L29.6,27.3z M29.6,28.4c0.2,0,0.3-0.2,0.3-0.4c0-0.2-0.1-0.4-0.3-0.4c-0.2,0-0.3,0.2-0.3,0.4
							C29.3,28.2,29.4,28.4,29.6,28.4L29.6,28.4z"/>
					</g>
					<path id="XMLID_22_" fill="#C1C0BE" d="M13.3,15c1.1,0,2.6-1.3,2.6-3c0-2.7-2.6-3.7-4.7-3.7C9.6,8.3,8,9,7,10.1
						c-0.9,1.2-1.1,2.5-0.4,2.8c0.4,0.1,0.9-0.3,1.1-0.8c0.3-0.7,0-1,0.4-1.7C8.6,9.8,9.6,9,11.1,9c1.3,0,2.8,0.7,2.8,2.9
						c0,1-0.4,2.7-2.2,2.7h-0.6c0-0.7,0-2.8,0-3.9c0-0.6,0.3-0.8,0.3-0.8c-1-0.2-1.6,0-2,0.4c-0.4,0.4-0.6,1-0.6,1.5
						c0,0.3,0,8.3,0,8.8c0,0.7-0.2,1.1-0.2,1.1c0,0,1.2,0.8,3.4,0.8c1.9,0,4.7-1,4.7-4C16.8,15.3,13.3,15,13.3,15L13.3,15z
						 M12.4,21.6c-1.2,0-1.2-1.1-1.2-1.7c0-0.3,0-4.3,0-4.3c0.2,0,0.4,0,0.7,0c1.2,0,2.7,0.7,2.7,3.1C14.5,20.9,13.3,21.6,12.4,21.6
						L12.4,21.6z"/>
					<path id="XMLID_19_" fill="#C1C0BE" d="M39.9,21.1c-0.3,0-0.6-0.1-0.6-1c0-0.5,0-2.8,0-4.7c0-1.9-1.7-2.4-3-2.4
						c-1.3,0-2.1,0.6-2.4,0.8c-0.9,0.7-1.1,1.9-0.4,2.1c0.4,0.1,0.8-0.2,1-0.7c0.1-0.2,0.1-0.5,0.3-0.8c0.3-0.4,0.7-0.6,1.2-0.6
						c0.8,0,1.3,0.5,1.3,1.2c0,0.3-0.1,0.8-0.8,1.3c-0.8,0.4-1.2,0.6-2,1.1c-1.2,0.7-1.6,1.6-1.6,2.6c0,0.2,0,0.5,0.1,0.8
						c-0.2,0.2-0.4,0.3-0.6,0.3c-0.4,0-0.7-0.4-0.7-1.4c0,0,0-7.9,0-8.6c0-1.4-0.8-1.7-1.5-1.8c-0.6,0-0.9,0.1-0.9,0.1
						s0.2,0.1,0.2,1c0,0.8,0,9.1,0,9.1c0,0.1,0,0.4,0,0.8c-0.1,0.2-0.6,0.8-1,0.8c-0.5,0-0.8-0.4-0.8-1.5c0,0,0-7.8,0-8.5
						c0-1.4-0.8-1.7-1.5-1.8c-0.6,0-0.9,0.1-0.9,0.1s0.2,0.1,0.2,1c0,0.8,0,9.1,0,9.1c0,0.1,0,0.4,0,0.7c-0.2,0.2-0.6,0.8-1.1,0.8
						c-0.4,0-0.7-0.4-0.7-1.5c0-0.5,0-4,0-4.7c0-1.4-0.8-1.7-1.5-1.8c-0.6,0-0.9,0.1-0.9,0.1s0.2,0.1,0.2,1c0,0.8,0,4.9,0,5.2
						c0,0.2,0,0.6,0.1,1.1c-0.1,0.2-0.4,0.4-0.9,0.4c-0.8,0-1.2-0.8-1.1-2.2c0-1,0.2-3.5,0-4.3c-0.2-0.7-0.7-1.3-1.5-1.3
						c-0.6,0-0.8,0.3-0.8,0.3s0.2,0,0.3,1.2c0,1.3-0.2,3.9,0,5.1c0.2,1.2,0.6,2.6,2.3,2.6c1,0,1.6-0.6,1.9-1
						c0.2,0.6,0.7,1.1,1.6,1.1c1.3,0,2-1.1,2.2-1.4c0.2,0.7,0.7,1.4,1.7,1.4c1.3,0,2.1-1.1,2.2-1.4c0.2,0.7,0.7,1.4,1.7,1.4
						c0.9,0,1.6-0.6,2-1c0.3,0.5,1,0.9,1.8,0.9c1,0,1.6-0.5,1.8-0.6c0.2-0.2,0.4-0.4,0.4-0.3c0,0,0.2,0.3,0.3,0.4
						c0.1,0.1,0.5,0.5,1.3,0.5c1.2,0,1.8-1.4,1.6-1.5C40.4,20.8,40.2,21,39.9,21.1L39.9,21.1z M37.3,19.4c0,1-0.7,1.6-1.4,1.6
						c-0.7,0-1.1-0.7-1.1-1.4c0.1-0.8,0.3-1.3,1.2-2.1c0.8-0.6,1.2-0.9,1.2-0.9S37.3,18.4,37.3,19.4L37.3,19.4z"/>
					<path id="XMLID_18_" fill="#C1C0BE" d="M41.1,17.8c-0.5,0.1-0.6,0.9-0.4,1.3c0.1,0.3,0.3,0.6,0.1,1c-0.1,0.2-0.3,0.4-0.1,0.5
						c0.1,0.1,0.5-0.2,0.7-0.4c0.2-0.2,0.6-0.8,0.6-1.4C41.9,18.1,41.5,17.7,41.1,17.8L41.1,17.8z"/>
				</g>
				<path id="XMLID_13_" fill="#C1C0BE" d="M45.7,5.2c-0.6,0-1,0.4-1,1c0,0.6,0.4,1,1,1c0.6,0,1-0.5,1-1C46.6,5.6,46.2,5.2,45.7,5.2
					L45.7,5.2z M45.7,5.3c0.4,0,0.8,0.4,0.8,0.8c0,0.5-0.3,0.8-0.8,0.8c-0.4,0-0.8-0.3-0.8-0.8C44.9,5.7,45.2,5.3,45.7,5.3L45.7,5.3
					z M46.2,6.6C46.2,6.6,46.2,6.5,46.2,6.6C46,6.4,46,6.3,45.9,6.2c0.1,0,0.2-0.1,0.2-0.3c0-0.2-0.2-0.3-0.4-0.3h-0.5v0.1
					c0.1,0,0.1,0,0.1,0.1v0.5c0,0.1,0,0.1-0.1,0.1v0.1h0.5V6.5c-0.1,0-0.1,0-0.1-0.1V6.2h0c0,0,0.1,0,0.1,0.1c0,0.1,0.1,0.2,0.1,0.2
					C45.9,6.6,46,6.7,46.2,6.6L46.2,6.6L46.2,6.6z M45.6,6.1V5.8c0-0.1,0-0.1,0.1-0.1c0.1,0,0.2,0,0.2,0.2c0,0.1,0,0.1-0.1,0.2
					C45.7,6.1,45.7,6.1,45.6,6.1L45.6,6.1L45.6,6.1z"/>
			</g>
		</g>
	</g>
	<path id="XMLID_7_" fill="#C1C0BE" d="M45.6,6.1V5.9c0-0.1,0-0.1,0.1-0.1c0.1,0,0.2,0,0.2,0.2c0,0.1,0,0.1-0.1,0.2
		C45.8,6.1,45.7,6.1,45.6,6.1L45.6,6.1 M46.3,6.6C46.2,6.6,46.2,6.6,46.3,6.6c-0.2-0.2-0.3-0.3-0.4-0.4c0.1,0,0.2-0.1,0.2-0.3
		c0-0.2-0.2-0.3-0.4-0.3h-0.5v0.1c0.1,0,0.1,0,0.1,0.1v0.5c0,0.1,0,0.1-0.1,0.1v0.1h0.5V6.6c-0.1,0-0.1,0-0.1-0.1V6.2h0
		c0,0,0.1,0,0.1,0.1c0,0.1,0.1,0.2,0.1,0.2C46,6.7,46.1,6.7,46.3,6.6L46.3,6.6z M45.7,5.4c0.4,0,0.8,0.4,0.8,0.8
		c0,0.5-0.3,0.8-0.8,0.8c-0.4,0-0.8-0.3-0.8-0.8C44.9,5.7,45.3,5.4,45.7,5.4z M45.7,5.2c-0.6,0-1,0.5-1,1c0,0.6,0.4,1,1,1
		c0.6,0,1-0.5,1-1C46.7,5.6,46.3,5.2,45.7,5.2z"/>
</g>
</svg>
