<?xml version="1.0" encoding="utf-8"?>
<!-- Generator: Adobe Illustrator 18.1.1, SVG Export Plug-In . SVG Version: 6.00 Build 0)  -->
<svg version="1.1" id="Layer_1" xmlns="http://www.w3.org/2000/svg" xmlns:xlink="http://www.w3.org/1999/xlink" x="0px" y="0px"
	 viewBox="0 0 66 22" enable-background="new 0 0 66 22" xml:space="preserve">
<path fill="#C1BFBD" d="M65.9,10.2c-0.1,0-0.1,0-0.1,0c0-0.5,0.1-0.9,0-1.5c0,0,0,0,0,0c0-0.3-0.1-0.4-0.1-0.5
	c-0.1-0.5-0.3-0.7-0.4-1.1c-0.1,0,0-0.2,0-0.2c-0.1,0.1-0.3,0-0.2,0c-0.1,0.2-0.1-0.2-0.1-0.3c0.1,0.1,0.2,0.2,0.3,0.3
	c0.2-0.1,0.4-0.3,0.4-0.5c-0.3,0-0.3,0.3-0.5,0.3c-0.1,0-0.2-0.3-0.1-0.4c-0.1-0.1-0.2-0.1-0.4-0.1c-0.2-0.4-0.6-0.5-0.9-0.9
	c0,0-0.1,0-0.1,0c0,0,0,0,0-0.1c-0.1-0.2-0.2,0-0.3,0c0.1,0,0.1-0.1,0.1-0.1c-0.4-0.5-1.1-0.8-1.7-1c0,0,0.1-0.1,0-0.1
	c-0.2,0-0.2-0.1-0.3-0.1c-0.1,0-0.1,0.2-0.2,0.1c-0.1-0.1,0.1-0.1,0-0.2C61.3,3.5,61,3.8,61,3.6c-0.2-0.1-0.7-0.1-0.8,0
	c-0.1,0-0.1,0-0.1,0c-0.5,0.2-1.4,0.2-2,0.3c0.1-0.1,0.3-0.3,0.4-0.2C58.3,3.5,57.9,3.9,58,4c-0.6,0-1,0.6-1.5,0.4c0,0-0.1,0-0.1,0
	c0-0.1,0-0.1,0-0.1c0,0-0.1,0-0.1,0c-0.1,0.1,0,0.2,0,0.3c0,0.2-0.1,0.3-0.3,0.3c-0.1,0.1-0.1,0.1-0.2,0c0,0,0,0,0,0
	c0,0-0.1,0,0-0.1c-0.2,0-0.3,0.2-0.2,0.3c0.1,0.1-0.1,0.3-0.1,0.4c-0.2,0,0-0.2,0-0.3c-0.1,0-0.1-0.1-0.2,0c0,0.1,0,0.1-0.1,0.1
	c0.1,0.2,0,0.3-0.1,0.4c-0.2,0.1-0.3,0.2-0.3,0.4c-0.1,0.1-0.4,0.2-0.3,0.3c0.1,0.1,0.2,0.2,0.2,0.4c0.2,0.1,0,0.4-0.1,0.5
	c0,0.1-0.1,0.1-0.1,0.1c-0.1,0.6-0.2,1.2-0.5,1.6c-0.1,0.5-0.2,1.2-0.1,1.8c0.2,1,0.5,1.7,1,2.4c0.2,0.3,0.5,0.7,0.9,0.9
	c0,0,0,0,0,0c0,0.1,0.2,0.1,0.3,0.1c0,0,0,0,0,0c0.1,0.1,0.1,0.3,0.3,0.3c0,0,0,0,0,0c0.3,0.2,0.6,0.4,1,0.5c0.1,0,0.3,0.1,0.3,0.2
	c0.5,0.1,0.7,0.5,1.4,0.4c0.2,0,0.3,0,0.5,0c0,0,0.1,0,0.1,0c0.3,0,0.5,0,0.7,0c0,0.1,0,0.2,0,0.4c0.1,0,0.2,0,0.3,0
	c0.1,0,0.1-0.1,0.2,0c0,0.1,0,0.1,0.1,0.1c0,0,0.1,0,0.1,0c0.1-0.1,0.4-0.1,0.5-0.1c0.3-0.2,0.5,0,0.8,0c-0.1-0.3,0.1-0.4,0.3-0.4
	c0,0,0.1,0,0.1,0c0-0.1,0-0.1-0.1-0.1c0-0.1,0.2-0.1,0.1,0c0.2,0,0.2-0.2,0.4-0.2c0.3-0.1,0.5-0.3,0.8-0.5c0.1-0.1,0-0.1,0-0.1
	c0-0.1,0.1,0,0.1,0c0.1,0,0.1-0.2,0.1-0.3c0.1,0,0,0.1,0,0.1c0.1,0,0.1-0.3,0.3-0.3c0,0,0,0,0,0c0.1,0,0.1-0.1,0.2-0.2
	c0.1-0.1,0.3-0.2,0.3-0.4c-0.2,0,0.2-0.1,0-0.1c0.2-0.1,0.2-0.3,0.4-0.4C65.8,12.4,66,11.4,65.9,10.2L65.9,10.2z M64.1,14
	C64.1,14,64.1,14,64.1,14C64.1,14,64.1,14,64.1,14C64.1,14,64.1,14,64.1,14L64.1,14z M62.4,15.2c0,0,0,0.1,0,0.1
	C62.4,15.3,62.4,15.3,62.4,15.2c0.1,0.2,0,0.2-0.1,0.1c0,0,0,0,0,0C62.2,15.5,62.2,15.1,62.4,15.2L62.4,15.2z M61.9,14.7
	c0.1,0.2-0.1,0.3,0,0.4c-0.2,0-0.3,0.1-0.5-0.1c0,0.2,0.1,0.4-0.1,0.6c-0.1-0.1,0-0.2,0-0.3c0,0.1,0.1,0.1,0.1,0
	c-0.1,0,0-0.2-0.1-0.1c-0.1,0.2-0.3,0.4-0.5,0.5c-0.1-0.1-0.3-0.2-0.4,0c-0.1-0.1-0.1-0.1,0-0.2C60.7,15.2,61.3,15,61.9,14.7
	L61.9,14.7z M62.2,14.6C62.2,14.6,62.3,14.6,62.2,14.6c0,0.2,0,0.3-0.1,0.4c-0.1-0.1,0-0.1-0.1-0.3c0,0,0,0,0,0c0,0,0,0,0,0
	C62,14.6,62,14.6,62.2,14.6L62.2,14.6z M64.7,6.6c-0.1,0.1-0.1-0.4,0-0.4c0.1,0,0,0.1,0,0.1c0,0,0,0,0,0C64.9,6.4,64.7,6.5,64.7,6.6
	L64.7,6.6z M57.7,3.8c0-0.1-0.1-0.1,0-0.2c-0.2,0-0.3,0.2-0.2,0.3C57.6,4,57.7,3.9,57.7,3.8L57.7,3.8z M54.7,4.5
	c0-0.1,0-0.2-0.1-0.2C54.5,4.4,54.5,4.5,54.7,4.5L54.7,4.5z"/>
<path fill="#C1BFBD" d="M9.3,6.5H6.1v4c0,1.3,0.1,2.2,1.7,2.2c0.4,0,1.2,0,1.5-0.3v3.1c-0.8,0.3-1.7,0.4-2.6,0.4
	c-2.5,0-4.4-1-4.4-3.6V6.5H0v-3h2.4V0h3.7v3.5h3.2V6.5L9.3,6.5z"/>
<path fill="#C1BFBD" d="M17.6,14L17.6,14c-0.9,1.3-2.3,1.8-3.8,1.8c-2.2,0-4.3-1.3-4.3-3.7c0-4.1,5-4.2,8.1-4.2
	c0-1.3-1.1-2.1-2.4-2.1c-1.2,0-2.2,0.5-3,1.4l-2-2c1.4-1.3,3.3-1.9,5.3-1.9c4.3,0,5.5,2.2,5.5,6.2v6.1h-3.4V14L17.6,14z M16.7,10.3
	c-1.1,0-3.6,0.1-3.6,1.7c0,0.9,0.9,1.3,1.7,1.3c1.5,0,2.8-0.8,2.8-2.2v-0.8H16.7L16.7,10.3z"/>
<path fill="#C1BFBD" d="M28.8,7.1c-0.5-0.7-1.3-1-2.1-1c-0.6,0-1.4,0.3-1.4,1c0,1.8,6.2,0.3,6.2,4.8c0,3.1-3,3.9-5.5,3.9
	c-1.7,0-3.5-0.4-4.7-1.6l2.2-2.5c0.7,0.8,1.5,1.3,2.6,1.3c0.8,0,1.7-0.2,1.7-0.9c0-1.9-6.2-0.3-6.2-4.8c0-2.8,2.5-4,5-4
	c1.6,0,3.3,0.4,4.4,1.6L28.8,7.1L28.8,7.1z"/>
<path fill="#C1BFBD" d="M40.5,6.5h-3.2v4c0,1.3,0.1,2.2,1.7,2.2c0.4,0,1.2,0,1.5-0.3v3.1c-0.8,0.3-1.7,0.4-2.6,0.4
	c-2.5,0-4.4-1-4.4-3.6V6.5h-2.4v-3h2.4V0h3.7v3.5h3.2V6.5L40.5,6.5z"/>
<path fill="#C1BFBD" d="M52.1,13.4c-1.2,1.5-3.1,2.4-5,2.4c-3.7,0-6.6-2.5-6.6-6.3c0-3.8,3-6.3,6.6-6.3c3.4,0,5.6,2.5,5.6,6.3v1.2
	h-8.6c0.3,1.4,1.4,2.3,2.8,2.3c1.2,0,2-0.6,2.6-1.5L52.1,13.4L52.1,13.4z M49,8.2c0-1.2-0.9-2.3-2.3-2.3c-1.6,0-2.5,1.1-2.6,2.3H49
	L49,8.2z"/>
<path fill="#C1BFBD" d="M21.8,17.1L21.8,17.1c0-0.5-0.1-0.6-0.3-0.6c-0.1,0-0.2,0-0.2,0.1v3.5c0,0.2,0.1,0.2,0.2,0.2h0.1
	c0.1,0,0.2-0.1,0.2-0.2v-2.4c0.2-0.4,0.6-0.8,1.1-0.8c0.6,0,1,0.4,1,1.2v2c0,0.2,0.1,0.2,0.2,0.2h0.1c0.1,0,0.2-0.1,0.2-0.2v-2.4
	c0.2-0.4,0.6-0.8,1.1-0.8c0.6,0,1,0.4,1,1.1v2c0,0.2,0.1,0.2,0.2,0.2h0.1c0.1,0,0.2-0.1,0.2-0.2v-2c0-1-0.5-1.6-1.4-1.6
	c-0.6,0-1.1,0.4-1.3,0.8c-0.2-0.5-0.6-0.8-1.2-0.8C22.5,16.5,22.1,16.7,21.8,17.1L21.8,17.1z M28.7,20c-0.5,0-0.8-0.2-0.8-0.6
	c0-0.6,0.7-0.8,1.9-0.9l0.2,0v0.3C30.1,19.5,29.5,20,28.7,20L28.7,20z M30.1,17.9v0.1H30c-1.7,0-2.6,0.4-2.6,1.3c0,0.6,0.5,1,1.3,1
	c0.6,0,1.1-0.3,1.4-0.7v0.1c0,0.4,0.1,0.5,0.3,0.5c0.1,0,0.2,0,0.2-0.1v-2.4c0-0.9-0.6-1.5-1.5-1.5c-1,0-1.5,0.6-1.5,0.9
	c0,0.3,0.3,0.3,0.3,0.3C28,17.3,28.4,17,29,17C29.7,17,30.1,17.3,30.1,17.9L30.1,17.9z M32.7,20.2c0.6,0.1,1.3,0.3,1.3,0.7
	c0,0.4-0.5,0.7-1.4,0.7c-0.9,0-1.3-0.2-1.3-0.6C31.3,20.5,32,20.2,32.7,20.2L32.7,20.2z M32.7,18.8c-0.6,0-1-0.4-1-1
	c0-0.6,0.4-1,1-1c0.6,0,1,0.4,1,1S33.2,18.8,32.7,18.8L32.7,18.8z M33.8,16.4l-0.3,0.4c-0.3-0.2-0.6-0.3-0.9-0.3
	c-0.9,0-1.5,0.6-1.5,1.4c0,0.6,0.4,1.1,0.9,1.2c-0.1,0.1-0.2,0.2-0.2,0.4c0,0.2,0.1,0.3,0.2,0.4c-0.7,0.1-1.2,0.5-1.2,1.1
	c0,0.7,0.6,1,1.8,1c1.2,0,1.9-0.4,1.9-1.1c0-0.6-0.6-0.9-1.1-1c-0.7-0.2-1-0.2-1-0.5c0-0.1,0-0.1,0.1-0.2c0.1,0,0.1,0,0.2,0
	c0.9,0,1.5-0.6,1.5-1.4c0-0.3-0.1-0.6-0.3-0.8l0.6-0.7c0,0-0.1-0.2-0.3-0.2C34,16.1,34,16.2,33.8,16.4L33.8,16.4z M36,20
	c-0.5,0-0.8-0.2-0.8-0.6c0-0.6,0.7-0.8,1.9-0.9l0.2,0v0.3C37.3,19.5,36.8,20,36,20L36,20z M37.3,17.9v0.1h-0.1
	c-1.7,0-2.6,0.4-2.6,1.3c0,0.6,0.5,1,1.3,1c0.6,0,1.1-0.3,1.4-0.7v0.1c0,0.4,0.1,0.5,0.3,0.5c0.1,0,0.2,0,0.2-0.1v-2.4
	c0-0.9-0.6-1.5-1.5-1.5c-1,0-1.5,0.6-1.5,0.9c0,0.3,0.3,0.3,0.3,0.3c0.2-0.4,0.6-0.7,1.2-0.7C37,17,37.3,17.3,37.3,17.9L37.3,17.9z
	 M38.5,20.3h2.6c0.2,0,0.3-0.1,0.3-0.2v0c0-0.1-0.1-0.2-0.3-0.2h-2.2l2.2-2.7c0.1-0.2,0.2-0.2,0.2-0.3v0c0-0.1-0.1-0.2-0.2-0.2h-2.6
	c-0.2,0-0.3,0.1-0.3,0.2v0c0,0.1,0.1,0.2,0.3,0.2h2.1l-2.2,2.7c-0.1,0.2-0.2,0.2-0.2,0.3v0.1C38.2,20.2,38.3,20.3,38.5,20.3
	L38.5,20.3z M42.2,15.6c0.2,0,0.3-0.1,0.3-0.3c0-0.2-0.1-0.3-0.3-0.3c-0.2,0-0.3,0.1-0.3,0.3C41.9,15.5,42,15.6,42.2,15.6L42.2,15.6
	z M42.2,20.3L42.2,20.3c0.2,0,0.3-0.1,0.3-0.2v-3.3c0-0.2-0.1-0.2-0.2-0.2h-0.1c-0.1,0-0.2,0.1-0.2,0.2v3.3
	C42,20.3,42.1,20.3,42.2,20.3L42.2,20.3z M43.6,17.2V17c0-0.4-0.1-0.5-0.3-0.5c-0.1,0-0.2,0-0.2,0.1v3.5c0,0.2,0.1,0.2,0.2,0.2h0.1
	c0.1,0,0.2-0.1,0.2-0.2v-2.3c0.2-0.5,0.6-0.8,1.2-0.8c0.6,0,1,0.4,1,1.2v1.9c0,0.2,0.1,0.2,0.2,0.2h0.1c0.1,0,0.2-0.1,0.2-0.2v-2
	c0-1-0.5-1.7-1.5-1.7C44.2,16.5,43.8,16.8,43.6,17.2L43.6,17.2z M49.9,18.1h-2.6c0.1-0.7,0.6-1.2,1.4-1.2
	C49.4,16.9,49.8,17.4,49.9,18.1L49.9,18.1z M47.3,18.6h2.9c0.2,0,0.2,0,0.2-0.2v0c0-1.1-0.7-1.9-1.7-1.9c-1.1,0-1.9,0.8-1.9,2
	c0,1.2,0.8,1.9,1.9,1.9c1,0,1.6-0.6,1.6-0.8c0-0.3-0.3-0.3-0.3-0.3c-0.2,0.4-0.5,0.7-1.3,0.7C47.9,20,47.3,19.4,47.3,18.6L47.3,18.6
	z"/>
<path fill="#C1BFBD" d="M65.9,10.2c-0.1,0-0.1,0-0.1,0c0-0.5,0.1-0.9,0-1.5c0,0,0,0,0,0c0-0.3-0.1-0.4-0.1-0.5
	c-0.1-0.5-0.3-0.7-0.4-1.1c-0.1,0,0-0.2,0-0.2c-0.1,0.1-0.3,0-0.2,0c-0.1,0.2-0.1-0.2-0.1-0.3c0.1,0.1,0.2,0.2,0.3,0.3
	c0.2-0.1,0.4-0.3,0.4-0.5c-0.3,0-0.3,0.3-0.5,0.3c-0.1,0-0.2-0.3-0.1-0.4c-0.1-0.1-0.2-0.1-0.4-0.1c-0.2-0.4-0.6-0.5-0.9-0.9
	c0,0-0.1,0-0.1,0c0,0,0,0,0-0.1c-0.1-0.2-0.2,0-0.3,0c0.1,0,0.1-0.1,0.1-0.1c-0.4-0.5-1.1-0.8-1.7-1c0,0,0.1-0.1,0-0.1
	c-0.2,0-0.2-0.1-0.3-0.1c-0.1,0-0.1,0.2-0.2,0.1c-0.1-0.1,0.1-0.1,0-0.2C61.3,3.5,61,3.8,61,3.6c-0.2-0.1-0.7-0.1-0.8,0
	c-0.1,0-0.1,0-0.1,0c-0.5,0.2-1.4,0.2-2,0.3c0.1-0.1,0.3-0.3,0.4-0.2C58.3,3.5,57.9,3.9,58,4c-0.6,0-1,0.6-1.5,0.4c0,0-0.1,0-0.1,0
	c0-0.1,0-0.1,0-0.1c0,0-0.1,0-0.1,0c-0.1,0.1,0,0.2,0,0.3c0,0.2-0.1,0.3-0.3,0.3c-0.1,0.1-0.1,0.1-0.2,0c0,0,0,0,0,0
	c0,0-0.1,0,0-0.1c-0.2,0-0.3,0.2-0.2,0.3c0.1,0.1-0.1,0.3-0.1,0.4c-0.2,0,0-0.2,0-0.3c-0.1,0-0.1-0.1-0.2,0c0,0.1,0,0.1-0.1,0.1
	c0.1,0.2,0,0.3-0.1,0.4c-0.2,0.1-0.3,0.2-0.3,0.4c-0.1,0.1-0.4,0.2-0.3,0.3c0.1,0.1,0.2,0.2,0.2,0.4c0.2,0.1,0,0.4-0.1,0.5
	c0,0.1-0.1,0.1-0.1,0.1c-0.1,0.6-0.2,1.2-0.5,1.6c-0.1,0.5-0.2,1.2-0.1,1.8c0.2,1,0.5,1.7,1,2.4c0.2,0.3,0.5,0.7,0.9,0.9
	c0,0,0,0,0,0c0,0.1,0.2,0.1,0.3,0.1c0,0,0,0,0,0c0.1,0.1,0.1,0.3,0.3,0.3c0,0,0,0,0,0c0.3,0.2,0.6,0.4,1,0.5c0.1,0,0.3,0.1,0.3,0.2
	c0.5,0.1,0.7,0.5,1.4,0.4c0.2,0,0.3,0,0.5,0c0,0,0.1,0,0.1,0c0.3,0,0.5,0,0.7,0c0,0.1,0,0.2,0,0.4c0.1,0,0.2,0,0.3,0
	c0.1,0,0.1-0.1,0.2,0c0,0.1,0,0.1,0.1,0.1c0,0,0.1,0,0.1,0c0.1-0.1,0.4-0.1,0.5-0.1c0.3-0.2,0.5,0,0.8,0c-0.1-0.3,0.1-0.4,0.3-0.4
	c0,0,0.1,0,0.1,0c0-0.1,0-0.1-0.1-0.1c0-0.1,0.2-0.1,0.1,0c0.2,0,0.2-0.2,0.4-0.2c0.3-0.1,0.5-0.3,0.8-0.5c0.1-0.1,0-0.1,0-0.1
	c0-0.1,0.1,0,0.1,0c0.1,0,0.1-0.2,0.1-0.3c0.1,0,0,0.1,0,0.1c0.1,0,0.1-0.3,0.3-0.3c0,0,0,0,0,0c0.1,0,0.1-0.1,0.2-0.2
	c0.1-0.1,0.3-0.2,0.3-0.4c-0.2,0,0.2-0.1,0-0.1c0.2-0.1,0.2-0.3,0.4-0.4C65.8,12.4,66,11.4,65.9,10.2L65.9,10.2z M64.1,14
	C64.1,14,64.1,14,64.1,14C64.1,14,64.1,14,64.1,14C64.1,14,64.1,14,64.1,14L64.1,14z M62.4,15.2c0,0,0,0.1,0,0.1
	C62.4,15.3,62.4,15.3,62.4,15.2c0.1,0.2,0,0.2-0.1,0.1c0,0,0,0,0,0C62.2,15.5,62.2,15.1,62.4,15.2L62.4,15.2z M61.9,14.7
	c0.1,0.2-0.1,0.3,0,0.4c-0.2,0-0.3,0.1-0.5-0.1c0,0.2,0.1,0.4-0.1,0.6c-0.1-0.1,0-0.2,0-0.3c0,0.1,0.1,0.1,0.1,0
	c-0.1,0,0-0.2-0.1-0.1c-0.1,0.2-0.3,0.4-0.5,0.5c-0.1-0.1-0.3-0.2-0.4,0c-0.1-0.1-0.1-0.1,0-0.2C60.7,15.2,61.3,15,61.9,14.7
	L61.9,14.7z M62.2,14.6C62.2,14.6,62.3,14.6,62.2,14.6c0,0.2,0,0.3-0.1,0.4c-0.1-0.1,0-0.1-0.1-0.3c0,0,0,0,0,0c0,0,0,0,0,0
	C62,14.6,62,14.6,62.2,14.6L62.2,14.6z M64.7,6.6c-0.1,0.1-0.1-0.4,0-0.4c0.1,0,0,0.1,0,0.1c0,0,0,0,0,0C64.9,6.4,64.7,6.5,64.7,6.6
	L64.7,6.6z M57.7,3.8c0-0.1-0.1-0.1,0-0.2c-0.2,0-0.3,0.2-0.2,0.3C57.6,4,57.7,3.9,57.7,3.8L57.7,3.8z M54.7,4.5
	c0-0.1,0-0.2-0.1-0.2C54.5,4.4,54.5,4.5,54.7,4.5L54.7,4.5z"/>
<path fill="#FFFFFF" d="M57.7,12.4c-0.1,0-0.2,0.1-0.2,0.2c0,0.1,0.1,0.2,0.2,0.2c0.1,0,0.2-0.1,0.2-0.2
	C57.9,12.5,57.8,12.4,57.7,12.4L57.7,12.4z M58.1,12.8h0.3l0.2-0.5h1l0.2,0.5H60l-0.8-2H59L58.1,12.8L58.1,12.8z M59.5,12.1h-0.8
	l0.4-1h0L59.5,12.1L59.5,12.1z M61.7,10.8h-0.2V12c0,0.3-0.1,0.6-0.5,0.6c-0.4,0-0.5-0.3-0.5-0.6v-1.2h-0.2V12
	c0,0.4,0.2,0.8,0.7,0.8c0.5,0,0.7-0.4,0.7-0.8V10.8L61.7,10.8z"/>
<path fill="#FFFFFF" d="M56.4,10c-0.1,0-0.2,0.1-0.2,0.2c0,0.1,0.1,0.2,0.2,0.2s0.2-0.1,0.2-0.2C56.5,10,56.5,10,56.4,10L56.4,10z
	 M58.4,8.6c-0.2-0.2-0.4-0.3-0.7-0.3c-0.6,0-1,0.5-1,1c0,0.6,0.4,1,1,1c0.3,0,0.6-0.1,0.7-0.3l-0.2-0.1c-0.1,0.2-0.3,0.3-0.6,0.3
	c-0.4,0-0.7-0.4-0.7-0.8c0-0.4,0.3-0.8,0.7-0.8c0.2,0,0.4,0.1,0.5,0.2L58.4,8.6L58.4,8.6z M59.6,10.3c0.6,0,1-0.4,1-1
	c0-0.6-0.4-1-1-1c-0.6,0-1,0.4-1,1C58.6,9.9,59,10.3,59.6,10.3L59.6,10.3z M59.6,10.1c-0.5,0-0.8-0.4-0.8-0.8c0-0.5,0.3-0.8,0.8-0.8
	c0.5,0,0.8,0.4,0.8,0.8C60.4,9.8,60.1,10.1,59.6,10.1L59.6,10.1z M61,10.3h0.2V8.6h0l0.7,1.6h0.1l0.7-1.6h0v1.6H63v-2h-0.3L62,9.9h0
	l-0.7-1.5H61V10.3L61,10.3z"/>
</svg>
