<?xml version="1.0" encoding="utf-8"?>
<!-- Generator: Adobe Illustrator 18.1.1, SVG Export Plug-In . SVG Version: 6.00 Build 0)  -->
<svg version="1.1" id="Layer_1" xmlns="http://www.w3.org/2000/svg" xmlns:xlink="http://www.w3.org/1999/xlink" x="0px" y="0px"
	 viewBox="0 0 88 22" enable-background="new 0 0 88 22" xml:space="preserve">
<g>
	<polygon fill="#C1C0BE" points="76.2,15.7 78.1,15.7 77.2,13.5 	"/>
	<path fill="#C1C0BE" d="M78.1,12.4c1,0,1.7-0.8,1.7-1.8c0-1-0.6-1.8-1.7-1.8c-1,0-1.7,0.8-1.7,1.8C76.4,11.6,77.1,12.4,78.1,12.4z"
		/>
	<path fill="#C1C0BE" d="M88,13c-0.1,0-0.2,0-0.2-0.1c-0.1-0.8,0.1-1.4-0.1-2.3h-0.1c0-0.4-0.1-0.6-0.1-0.8
		c-0.2-0.7-0.4-1.1-0.6-1.8c-0.2,0,0.1-0.2,0-0.3c-0.1,0.1-0.5,0-0.3,0.1c-0.2,0.3-0.1-0.3-0.1-0.5c0.2,0.1,0.4,0.4,0.6,0.4
		c0.2,0,0.7-0.6,0.6-0.8c-0.1-0.2-0.4,0.2-0.7,0.5c-0.2,0-0.2-0.5-0.1-0.6c0.1-0.1-0.4-0.2-0.7-0.1c-0.3-0.6-0.9-0.8-1.3-1.3
		c-0.1,0-0.1-0.1-0.1-0.1c0-0.1-0.1-0.1-0.1-0.1c-0.1-0.3-0.4,0-0.4-0.1c0.1,0,0.1-0.1,0.1-0.2c-0.7-0.8-1.7-1.2-2.6-1.5
		c0-0.1,0.1-0.2,0.1-0.2c-0.3,0-0.3-0.2-0.5-0.1c-0.1,0.1-0.1,0.2-0.3,0.2C80.8,3.2,81.1,3.2,81,3c-0.1-0.3-0.6,0.2-0.6-0.1
		c-0.2-0.1-1-0.2-1.2,0.1c-0.1,0-0.2,0-0.2,0.1c-0.8,0.4-2.1,0.3-3.1,0.5c0.2-0.1,0.6-0.2,0.7-0.3c-0.3-0.4-0.9,0.1-0.8,0.4
		c-1,0-1.5,0.9-2.3,0.7c-0.1,0-0.1,0-0.2-0.1c-0.1-0.1-0.1-0.3-0.2-0.2c-0.1,0.1-0.1,0.3-0.1,0.5c-0.1,0.3-0.5,0.4-0.5,0.4
		s-0.2,0.1-0.3,0V4.7c0,0,0-0.1-0.1-0.1c-0.2,0-0.5,0.4-0.3,0.5c0.2,0.2-0.1,0.4-0.2,0.6c-0.3,0-0.1-0.3-0.1-0.4
		c-0.1,0-0.2-0.1-0.3-0.1c0,0.1-0.1,0-0.1,0.1c0,0.1,0,0.5-0.1,0.7c-0.3,0.1-0.5,0.3-0.4,0.7c-0.1,0.2-0.7,0.2-0.5,0.4
		c0.1,0.2,0.4,0.3,0.4,0.6c0.4,0.2-0.1,0.6-0.1,0.8c0,0.1-0.1,0.1-0.2,0.1c-0.2,0.9-0.3,1.9-0.8,2.5c-0.2,0.7-0.3,1.8-0.1,2.7
		c0.2,1.5,0.8,2.7,1.5,3.7c0.4,0.5,0.7,1.1,1.3,1.4h0.1c0.1,0.2,0.3,0.1,0.4,0.2h0.1c0.2,0.1,0.2,0.4,0.4,0.5v0.1
		c0.5,0.3,0.9,0.7,1.5,0.8c0.2,0.1,0.4,0.1,0.5,0.3c0.8,0.2,1.1,0.8,2.1,0.6h0.9c0.4,0,0.7,0,1.1-0.1c0,0.1,0,0.5,0.1,0.6
		c0,0.1,0.4,0,0.4,0c0.2,0,0.2-0.1,0.4-0.1c0,0.1,0.1,0.1,0.1,0.1h0.2c0.2,0,0.6-0.1,0.7-0.1c0.4-0.2,0.7,0,1.2,0.1
		c0,0-0.1-0.1-0.1-0.2c0-0.3,0.3-0.4,0.5-0.5c0-0.1,0.1-0.1,0.1-0.1c0-0.1-0.1-0.1-0.1-0.1c0-0.1,0.3-0.1,0.2,0.1c0,0,0.1,0,0.1,0
		c0.2-0.1,0.2-0.3,0.5-0.3c0.5-0.1,0.8-0.5,1.2-0.7c0.1-0.1,0.1-0.1-0.1-0.1c0-0.1,0.1-0.1,0.1,0c0.2,0,0.1-0.3,0.2-0.4
		c0.1,0,0,0.1,0,0.2c0.2,0,0.2-0.5,0.5-0.4c0,0,0,0,0,0c0.1-0.1,0.2-0.2,0.3-0.3c0.2-0.1,0.4-0.3,0.5-0.6c-0.3,0,0.3-0.1,0-0.1
		c0.3-0.1,0.4-0.4,0.6-0.6C87.8,16.5,88.2,14.9,88,13z M71.8,12.6c-0.2,0-0.3-0.1-0.3-0.3c0-0.2,0.1-0.3,0.3-0.3
		c0.2,0,0.3,0.1,0.3,0.3C72.1,12.5,72,12.6,71.8,12.6z M80.7,16.9c0.9,0,1.1-0.8,1.1-1.4v-2.4h0.4v2.5c0,0.9-0.4,1.6-1.5,1.6
		c-1.1,0-1.5-0.8-1.5-1.6v-2.5h0.4v2.4C79.6,16.1,79.7,16.9,80.7,16.9z M78.1,8.5c1.2,0,2.1,0.9,2.1,2.1c0,1.2-0.8,2.1-2.1,2.1
		c-1.2,0-2.1-0.9-2.1-2.1C76.1,9.4,76.9,8.5,78.1,8.5z M74.5,17.2c-0.2,0-0.3-0.1-0.3-0.3c0-0.2,0.1-0.3,0.3-0.3s0.3,0.1,0.3,0.3
		C74.8,17,74.7,17.2,74.5,17.2z M74.5,12.7c-1.2,0-2.1-0.9-2.1-2.1c0-1.2,0.8-2.1,2.1-2.1c0.5,0,1,0.2,1.4,0.6l-0.3,0.3
		c-0.2-0.4-0.7-0.5-1.1-0.5c-1,0-1.7,0.8-1.7,1.8c0,1,0.6,1.8,1.7,1.8c0.4,0,0.9-0.2,1.2-0.6l0.3,0.2C75.6,12.5,75,12.7,74.5,12.7z
		 M78.6,17.1l-0.4-1.1h-2.1l-0.5,1.1h-0.4l1.7-4h0.4l1.7,4H78.6z M79.1,20.3c0.1-0.1,0.4,0,0.4,0.2C79.4,20.7,79.1,20.6,79.1,20.3z
		 M81.8,20.6c-0.2,0-0.5,0.1-0.6-0.1c-0.1-0.1-0.1-0.2-0.1-0.2c0.1,0.4,0.1,0.6-0.2,0.9c-0.1-0.1,0-0.3,0.1-0.4
		c0,0.1,0.1,0.2,0.1,0.1c-0.1,0-0.1-0.3-0.2-0.2c-0.3,0.4-0.5,0.6-0.8,0.8c-0.2-0.2-0.5-0.3-0.7,0c-0.1-0.1-0.1-0.2,0-0.3
		c0.7-0.6,1.6-0.8,2.4-1.2C82,20.3,81.7,20.4,81.8,20.6z M82.1,20.3c-0.1-0.2-0.1-0.1-0.2-0.4c0.1,0,0.2-0.2,0.4-0.1
		c0.1,0,0.2,0,0.1,0.1C82.3,20,82.2,20.2,82.1,20.3z M82.4,20.9C82.4,21,82.5,21,82.4,20.9c-0.1,0.3-0.1-0.3,0.2-0.2
		c0,0.1-0.1,0.1-0.1,0.2c0.1,0,0.1,0,0.1-0.1C82.8,21,82.6,21,82.4,20.9z M84.8,12.6h-0.4V9.1h0l-1.5,3.5h-0.2l-1.5-3.5h0v3.5h-0.4
		v-4h0.6l1.5,3.3l1.5-3.3h0.5V12.6z M86.2,7.6c-0.1,0.2-0.1-0.5,0-0.6c0.1,0.1,0,0.1,0,0.2c0.1,0,0.1,0,0.1-0.1
		C86.5,7.2,86.1,7.4,86.2,7.6z"/>
</g>
<g>
	<path fill="#C1C0BE" d="M12,8.4H7.8v5.2c0,1.7,0.2,2.9,2.3,2.9c0.5,0,1.5-0.1,1.9-0.4v4c-1,0.4-2.2,0.5-3.3,0.5
		c-3.2,0-5.6-1.3-5.6-4.7V8.4H0V4.6h3.1V0h4.8v4.6H12V8.4z"/>
	<path fill="#C1C0BE" d="M22.7,18.1L22.7,18.1c-1.1,1.7-3,2.3-5,2.3c-2.9,0-5.5-1.7-5.5-4.8c0-5.3,6.5-5.4,10.5-5.4
		c0-1.7-1.4-2.8-3.1-2.8c-1.6,0-2.9,0.7-3.9,1.8l-2.5-2.6C15,5,17.6,4.2,20.1,4.2c5.6,0,7.1,2.8,7.1,8V20h-4.4V18.1z M21.6,13.3
		c-1.5,0-4.7,0.1-4.7,2.2c0,1.1,1.2,1.7,2.3,1.7c1.9,0,3.6-1,3.6-2.9v-1H21.6z"/>
	<path fill="#C1C0BE" d="M37.2,9.1c-0.7-0.9-1.6-1.3-2.8-1.3c-0.8,0-1.7,0.4-1.7,1.3c0,2.3,8,0.3,8,6.2c0,3.9-3.8,5.1-7.1,5.1
		c-2.2,0-4.5-0.5-6.1-2.1l2.9-3.2c0.9,1.1,1.9,1.7,3.4,1.7c1.1,0,2.2-0.3,2.2-1.1c0-2.5-8-0.4-8-6.3c0-3.6,3.2-5.2,6.5-5.2
		c2,0,4.3,0.5,5.7,2L37.2,9.1z"/>
	<path fill="#C1C0BE" d="M52.4,8.4h-4.2v5.2c0,1.7,0.2,2.9,2.3,2.9c0.5,0,1.5-0.1,1.9-0.4v4c-1,0.4-2.2,0.5-3.3,0.5
		c-3.2,0-5.6-1.3-5.6-4.7V8.4h-3.1V4.6h3.1V0h4.8v4.6h4.2V8.4z"/>
	<path fill="#C1C0BE" d="M67.3,17.4c-1.5,1.9-4,3.1-6.5,3.1c-4.8,0-8.6-3.2-8.6-8.1c0-4.9,3.8-8.1,8.6-8.1c4.5,0,7.2,3.2,7.2,8.1
		v1.5H57c0.4,1.8,1.7,3,3.6,3c1.6,0,2.6-0.8,3.4-1.9L67.3,17.4z M63.3,10.6c0-1.6-1.2-2.9-2.9-2.9c-2.1,0-3.2,1.4-3.4,2.9H63.3z"/>
</g>
</svg>
