<?xml version="1.0" encoding="utf-8"?>
<!-- Generator: Adobe Illustrator 18.1.1, SVG Export Plug-In . SVG Version: 6.00 Build 0)  -->
<svg version="1.1" id="Layer_1" xmlns="http://www.w3.org/2000/svg" xmlns:xlink="http://www.w3.org/1999/xlink" x="0px" y="0px"
	 viewBox="0 0 71 22" enable-background="new 0 0 71 22" xml:space="preserve">
<g>
	<g>
		<path fill-rule="evenodd" clip-rule="evenodd" fill="#C1C0BE" d="M16.7,15.4c-0.9,3.7-4.3,6.4-8.3,6.4c-4.7,0-8.5-3.8-8.5-8.5
			c0-4.7,3.8-8.5,8.5-8.5c4,0,7.3,2.8,8.3,6.4h-3.5c-0.8-1.8-2.6-3.1-4.8-3.1c-2.9,0-5.2,2.3-5.2,5.2c0,2.9,2.3,5.2,5.2,5.2
			c2.1,0,4-1.3,4.8-3.1H16.7"/>
	</g>
	<path fill-rule="evenodd" clip-rule="evenodd" fill="#C1C0BE" d="M25.9,18.5c-2.8,0-5.1-2.3-5.1-5.2c0-2.8,2.3-5.1,5.1-5.2
		c2.8,0,5.2,2.3,5.2,5.2C31,16.2,28.7,18.5,25.9,18.5 M25.9,4.8c-4.7,0-8.5,3.8-8.5,8.5c0,4.7,3.8,8.5,8.5,8.5
		c4.7,0,8.5-3.8,8.5-8.5C34.4,8.6,30.6,4.8,25.9,4.8z"/>
	<rect x="35.5" y="0.1" fill="#C1C0BE" width="3.7" height="21.8"/>
	<path fill-rule="evenodd" clip-rule="evenodd" fill="#C1C0BE" d="M48.7,7.8c2.2,0,4,1.5,4.2,3.4l-8.4,0l-0.1,0
		C44.7,9.3,46.6,7.8,48.7,7.8 M49.1,18.6c-2.6,0-4.8-1.9-4.8-4.3c0-0.1,0-0.2,0-0.2h12.3c0-6.8-3.5-9.3-7.8-9.3
		c-3.3,0-8.1,2.1-8.1,8.5c0,5.2,3.8,8.6,8.1,8.6c3.7,0,6.9-2.2,7.6-5.9H53C52.4,17.6,50.9,18.6,49.1,18.6z"/>
	<g>
		<path fill-rule="evenodd" clip-rule="evenodd" fill="#C1C0BE" d="M67.1,10.2h3.2c0,0,0.1-2.9-2.3-4.4c0,0-1.1-1-4.3-1
			c0,0-3.2,0-4.7,1.4c0,0-1.5,1.1-1.5,3.4c0,0-0.3,2.2,1.9,3.5c0,0,1.7,0.8,3.4,1.3c0,0,2.7,0.7,3.2,1c0,0,2.3,1.1,0.9,2.4
			c0,0-0.6,0.9-2.7,0.9c0,0-3.7,0.1-3.7-2.7h-3.3c0,0-0.3,3,2.2,4.6c0,0,1.6,1.1,4.8,1.1c0,0,3,0,4.6-1.2c0,0,2.1-1.5,2.1-4
			c0,0,0.2-2.6-3-4c0,0-3.3-1.1-4.1-1.3c0,0-3.3-0.7-2.6-2.3c0,0,0.2-1.1,2.8-1.1c0,0,1.8,0,2.6,1C66.5,8.7,67,9.3,67.1,10.2"/>
	</g>
</g>
</svg>
