<?xml version="1.0" encoding="utf-8"?>
<!-- Generator: Adobe Illustrator 18.1.1, SVG Export Plug-In . SVG Version: 6.00 Build 0)  -->
<svg version="1.1" id="Layer_2" xmlns="http://www.w3.org/2000/svg" xmlns:xlink="http://www.w3.org/1999/xlink" x="0px" y="0px"
	 viewBox="0 0 142 20" enable-background="new 0 0 142 20" xml:space="preserve">
<g>
	<polygon fill="#F16823" points="66.7,14.2 68.3,14.2 67.5,12.3 	"/>
	<path fill="#F16823" d="M68.4,11.2c0.9,0,1.5-0.7,1.5-1.5c0-0.9-0.6-1.5-1.5-1.5c-0.9,0-1.5,0.7-1.5,1.5
		C66.9,10.6,67.5,11.2,68.4,11.2z"/>
	<path fill="#F16823" d="M77,11.8c-0.1,0-0.2,0-0.2-0.1c-0.1-0.7,0.1-1.3-0.1-2h-0.1c0-0.4-0.1-0.5-0.1-0.7c-0.2-0.6-0.4-1-0.5-1.5
		c-0.2,0,0.1-0.2,0-0.3c-0.1,0.1-0.4,0-0.3,0.1c-0.2,0.2-0.1-0.3-0.1-0.4C75.9,7,76,7.3,76.2,7.3c0.1,0,0.6-0.5,0.5-0.7
		c-0.1-0.1-0.4,0.2-0.6,0.4c-0.2,0-0.2-0.4-0.1-0.5c0.1-0.1-0.3-0.1-0.6-0.1c-0.2-0.5-0.8-0.7-1.2-1.1c-0.1,0-0.1-0.1-0.1-0.1
		c0-0.1-0.1-0.1-0.1-0.1c-0.1-0.2-0.3,0-0.4-0.1c0.1,0,0.1-0.1,0.1-0.2c-0.6-0.7-1.5-1.1-2.2-1.3c0-0.1,0.1-0.2,0.1-0.2
		c-0.2,0-0.2-0.1-0.4-0.1c-0.1,0-0.1,0.2-0.3,0.2C70.7,3.2,71,3.2,70.9,3c-0.1-0.2-0.5,0.2-0.5-0.1c-0.2-0.1-0.9-0.1-1,0.1
		c-0.1,0-0.2,0-0.2,0.1c-0.7,0.3-1.9,0.2-2.7,0.4c0.1-0.1,0.6-0.2,0.6-0.3c-0.2-0.3-0.8,0.1-0.7,0.3c-0.8,0-1.3,0.8-2,0.6
		c0,0-0.1,0-0.2-0.1c-0.1-0.1-0.1-0.3-0.1-0.2C64,3.9,64,4.1,64,4.2c0,0.2-0.4,0.4-0.4,0.4s-0.2,0.1-0.3,0V4.6c0,0,0-0.1-0.1-0.1
		c-0.2,0-0.4,0.3-0.3,0.4c0.2,0.2-0.1,0.4-0.2,0.5c-0.3,0-0.1-0.3-0.1-0.4c-0.1,0-0.1-0.1-0.3-0.1c0,0.1-0.1,0-0.1,0.1
		c0,0.1,0,0.4-0.1,0.6c-0.2,0.1-0.4,0.2-0.4,0.6c-0.1,0.2-0.6,0.2-0.4,0.4c0.1,0.2,0.3,0.2,0.3,0.5c0.3,0.2-0.1,0.5-0.1,0.7
		c0,0.1-0.1,0.1-0.2,0.1c-0.2,0.8-0.3,1.6-0.7,2.2c-0.2,0.6-0.3,1.6-0.1,2.4c0.2,1.3,0.7,2.3,1.3,3.3c0.3,0.5,0.6,1,1.1,1.2h0.1
		c0.1,0.1,0.3,0.1,0.4,0.2h0.1c0.2,0.1,0.2,0.4,0.4,0.4v0.1c0.4,0.2,0.8,0.6,1.3,0.7c0.2,0,0.4,0.1,0.4,0.3c0.7,0.2,1,0.7,1.9,0.5
		h0.8c0.4,0,0.7,0,1-0.1c0,0.1,0,0.4,0.1,0.5c0,0.1,0.4,0,0.4,0c0.2,0,0.1-0.1,0.3-0.1c0,0.1,0,0.1,0.1,0.1h0.2
		c0.1,0,0.5-0.1,0.6-0.1c0.4-0.2,0.6,0,1,0.1c0,0-0.1-0.1-0.1-0.2c0-0.2,0.3-0.3,0.4-0.4c0-0.1,0.1-0.1,0.1-0.1
		c0-0.1-0.1-0.1-0.1-0.1c0-0.1,0.3-0.1,0.2,0.1c0,0,0.1,0,0.1,0c0.2-0.1,0.2-0.2,0.4-0.2c0.4-0.1,0.7-0.4,1-0.6
		c0.1-0.1,0.1-0.1-0.1-0.1c0-0.1,0.1-0.1,0.1,0c0.2,0,0.1-0.3,0.2-0.4c0.1,0,0,0.1,0,0.2c0.2,0,0.2-0.4,0.4-0.4c0,0,0,0,0,0
		c0.1-0.1,0.2-0.2,0.3-0.2c0.2-0.1,0.4-0.3,0.4-0.5c-0.3,0,0.3-0.1,0-0.1c0.2-0.1,0.3-0.4,0.5-0.5C76.9,14.8,77.2,13.4,77,11.8z
		 M62.9,11.5c-0.1,0-0.2-0.1-0.2-0.2c0-0.1,0.1-0.2,0.2-0.2s0.2,0.1,0.2,0.2C63.1,11.4,63,11.5,62.9,11.5z M70.6,15.2
		c0.8,0,0.9-0.7,0.9-1.2v-2.1h0.3v2.2c0,0.7-0.3,1.4-1.3,1.4c-1,0-1.3-0.7-1.3-1.4v-2.2h0.3V14C69.7,14.5,69.8,15.2,70.6,15.2z
		 M68.4,7.9c1.1,0,1.8,0.8,1.8,1.8c0,1.1-0.7,1.8-1.8,1.8c-1.1,0-1.8-0.8-1.8-1.8C66.6,8.6,67.3,7.9,68.4,7.9z M65.3,15.4
		c-0.1,0-0.2-0.1-0.2-0.2c0-0.1,0.1-0.2,0.2-0.2s0.2,0.1,0.2,0.2C65.5,15.3,65.4,15.4,65.3,15.4z M65.2,11.5c-1.1,0-1.8-0.8-1.8-1.8
		c0-1.1,0.7-1.8,1.8-1.8c0.5,0,0.9,0.2,1.2,0.5l-0.3,0.2c-0.2-0.3-0.6-0.5-0.9-0.5c-0.9,0-1.5,0.7-1.5,1.5c0,0.9,0.6,1.5,1.5,1.5
		c0.4,0,0.8-0.2,1-0.5l0.3,0.2C66.1,11.4,65.7,11.5,65.2,11.5z M68.8,15.4l-0.4-0.9h-1.9l-0.4,0.9h-0.3l1.5-3.5h0.3l1.5,3.5H68.8z
		 M69.3,18.2c0.1-0.1,0.4,0,0.4,0.2C69.5,18.5,69.2,18.5,69.3,18.2z M71.6,18.5c-0.2,0-0.4,0.1-0.5,0c-0.1-0.1-0.1-0.2-0.1-0.1
		c0.1,0.3,0.1,0.5-0.2,0.8c-0.1-0.1,0-0.3,0.1-0.4c0,0.1,0.1,0.2,0.1,0.1c-0.1,0-0.1-0.3-0.2-0.2c-0.2,0.4-0.5,0.5-0.7,0.7
		c-0.1-0.2-0.4-0.2-0.6,0c-0.1-0.1-0.1-0.2,0-0.3c0.6-0.5,1.4-0.7,2.1-1.1C71.7,18.2,71.6,18.3,71.6,18.5z M71.9,18.2
		c-0.1-0.2-0.1-0.1-0.2-0.4c0.1,0,0.2-0.1,0.3-0.1c0.1,0,0.2,0,0.1,0.1C72,17.9,72,18.1,71.9,18.2z M72.2,18.7
		C72.1,18.8,72.2,18.8,72.2,18.7c-0.1,0.2-0.1-0.3,0.2-0.2c0,0.1-0.1,0.1-0.1,0.2c0.1,0,0.1,0,0.1-0.1
		C72.5,18.8,72.3,18.8,72.2,18.7z M74.2,11.4h-0.3V8.4h0l-1.3,3.1h-0.1l-1.4-3.1h0v3.1h-0.3V8h0.5l1.3,2.9L73.8,8h0.5V11.4z
		 M75.5,7.1c-0.1,0.2-0.1-0.5,0-0.5c0.1,0,0,0.1,0,0.2c0.1,0,0.1,0,0.1-0.1C75.7,6.7,75.4,6.9,75.5,7.1z M75.9,13.3v0.1
		c-0.2,0,0-0.3-0.3-0.3c0-0.1,0.1-0.1,0.1-0.2c0.1,0,0,0.2,0.2,0.1C75.8,13.2,75.8,13.2,75.9,13.3z M76.4,14c0,0.1-0.1,0.1-0.3,0.1
		C76.1,14.1,76.2,14.1,76.4,14c-0.1,0-0.2,0-0.3,0c0-0.2,0.2-0.1,0.2-0.3C76.5,13.8,76.2,14,76.4,14z"/>
</g>
<g>
	<path fill="#9CBE3C" d="M10.5,7.8H6.8v4.5c0,1.4,0.2,2.5,2,2.5c0.4,0,1.3-0.1,1.7-0.4v3.5c-0.9,0.3-1.9,0.4-2.9,0.4
		c-2.8,0-4.9-1.1-4.9-4.1V7.8H0V4.4h2.7v-4h4.2v4h3.7V7.8z"/>
	<path fill="#9CBE3C" d="M19.9,16.3L19.9,16.3c-1,1.4-2.6,2-4.3,2c-2.5,0-4.8-1.4-4.8-4.2c0-4.7,5.7-4.8,9.2-4.8
		c0-1.5-1.2-2.4-2.7-2.4c-1.4,0-2.5,0.6-3.4,1.6l-2.2-2.3c1.5-1.4,3.8-2.2,6-2.2c4.9,0,6.2,2.5,6.2,7V18h-3.8V16.3z M18.9,12
		c-1.3,0-4.1,0.1-4.1,1.9c0,1,1.1,1.5,2,1.5c1.6,0,3.2-0.9,3.2-2.5V12H18.9z"/>
	<path fill="#9CBE3C" d="M32.5,8.4c-0.6-0.8-1.4-1.1-2.4-1.1c-0.7,0-1.5,0.3-1.5,1.1c0,2,7,0.3,7,5.5c0,3.5-3.3,4.5-6.2,4.5
		c-1.9,0-4-0.5-5.3-1.8l2.5-2.8c0.8,0.9,1.7,1.5,2.9,1.5c0.9,0,1.9-0.3,1.9-1c0-2.2-7-0.3-7-5.5c0-3.2,2.8-4.6,5.7-4.6
		c1.8,0,3.8,0.4,5,1.8L32.5,8.4z"/>
	<path fill="#9CBE3C" d="M45.9,7.8h-3.7v4.5c0,1.4,0.2,2.5,2,2.5c0.4,0,1.3-0.1,1.7-0.4v3.5c-0.9,0.3-1.9,0.4-2.9,0.4
		c-2.8,0-4.9-1.1-4.9-4.1V7.8h-2.7V4.4H38v-4h4.2v4h3.7V7.8z"/>
	<path fill="#9CBE3C" d="M59,15.6c-1.3,1.7-3.5,2.7-5.7,2.7c-4.2,0-7.5-2.8-7.5-7.1c0-4.3,3.3-7.1,7.5-7.1c3.9,0,6.3,2.8,6.3,7.1
		v1.3h-9.7c0.3,1.6,1.5,2.6,3.1,2.6c1.4,0,2.3-0.7,3-1.6L59,15.6z M55.4,9.7c0-1.4-1.1-2.6-2.6-2.6c-1.8,0-2.8,1.3-2.9,2.6H55.4z"/>
</g>
<g>
	<path fill="#9CBE3C" d="M81.9,9c0-0.3-0.1-0.4-0.4-0.4h-0.7V7.2h1.5c0.8,0,1.1,0.3,1.1,0.9c0,0.3,0,0.5,0,0.5h0
		c0,0,0.7-1.5,2.9-1.5c2.3,0,3.8,1.8,3.8,4.5c0,2.7-1.7,4.5-3.9,4.5c-1.9,0-2.6-1.4-2.6-1.4h0c0,0,0,0.3,0,0.7v3.8h-1.6V9z M86,14.6
		c1.4,0,2.5-1.1,2.5-3.1c0-1.9-1-3.1-2.4-3.1c-1.3,0-2.5,0.9-2.5,3.1C83.5,13.1,84.4,14.6,86,14.6z"/>
	<path fill="#9CBE3C" d="M92,5.6c0-0.3-0.1-0.4-0.4-0.4H91V3.8h1.6c0.8,0,1.1,0.3,1.1,1.1V14c0,0.3,0.1,0.4,0.4,0.4h0.7v1.4h-1.6
		c-0.8,0-1.1-0.3-1.1-1.1V5.6z"/>
	<path fill="#9CBE3C" d="M101,10.5h0.4v-0.1c0-1.5-0.6-2.1-1.9-2.1C99,8.3,98,8.4,98,9v0.5h-1.5V8.6c0-1.4,2.1-1.6,3-1.6
		c2.8,0,3.5,1.5,3.5,3.4V14c0,0.3,0.1,0.4,0.4,0.4h0.7v1.4h-1.5c-0.8,0-1.1-0.4-1.1-1c0-0.3,0-0.5,0-0.5h0c0,0-0.7,1.7-2.7,1.7
		c-1.5,0-2.9-0.9-2.9-2.6C95.8,10.6,99.5,10.5,101,10.5z M99.1,14.7c1.4,0,2.3-1.5,2.3-2.7v-0.3H101c-1.2,0-3.5,0.1-3.5,1.6
		C97.5,14,98,14.7,99.1,14.7z"/>
	<path fill="#9CBE3C" d="M105.9,9c0-0.3-0.1-0.4-0.4-0.4h-0.7V7.2h1.6c0.7,0,1.1,0.3,1.1,1v0.3c0,0.3,0,0.5,0,0.5h0
		c0.3-0.7,1.4-2,3.2-2c2,0,3,1.1,3,3.3V14c0,0.3,0.1,0.4,0.4,0.4h0.7v1.4h-1.6c-0.8,0-1.1-0.3-1.1-1.1v-4c0-1.2-0.2-2.2-1.6-2.2
		c-1.3,0-2.4,0.9-2.7,2.1c-0.1,0.3-0.2,0.7-0.2,1.2v4h-1.6V9z"/>
	<path fill="#9CBE3C" d="M116.5,9c0-0.3-0.1-0.4-0.4-0.4h-0.7V7.2h1.6c0.7,0,1.1,0.3,1.1,1v0.3c0,0.3,0,0.5,0,0.5h0
		c0.3-0.7,1.4-2,3.2-2c2,0,3,1.1,3,3.3V14c0,0.3,0.1,0.4,0.4,0.4h0.7v1.4h-1.6c-0.8,0-1.1-0.3-1.1-1.1v-4c0-1.2-0.2-2.2-1.6-2.2
		c-1.3,0-2.4,0.9-2.7,2.1c-0.1,0.3-0.2,0.7-0.2,1.2v4h-1.6V9z"/>
	<path fill="#9CBE3C" d="M130.6,7c2.4,0,3.7,1.8,3.7,4c0,0.2-0.1,0.7-0.1,0.7H128c0.1,1.8,1.4,2.9,3,2.9c1.5,0,2.5-1,2.5-1l0.7,1.2
		c0,0-1.3,1.3-3.3,1.3c-2.7,0-4.6-2-4.6-4.5C126.3,8.8,128.2,7,130.6,7z M132.6,10.5c-0.1-1.4-1-2.2-2-2.2c-1.3,0-2.3,0.8-2.5,2.2
		H132.6z"/>
	<path fill="#9CBE3C" d="M136.5,9c0-0.3-0.1-0.4-0.4-0.4h-0.7V7.2h1.6c0.7,0,1.1,0.3,1.1,1v0.5c0,0.3,0,0.6,0,0.6h0
		c0.4-1.3,1.4-2.2,2.7-2.2c0.2,0,0.4,0,0.4,0v1.6c0,0-0.2-0.1-0.5-0.1c-1.1,0-2,0.7-2.4,2c-0.2,0.5-0.2,1-0.2,1.5v3.5h-1.6V9z"/>
</g>
</svg>
