<?xml version="1.0" encoding="utf-8"?>
<!-- Generator: Adobe Illustrator 18.1.1, SVG Export Plug-In . SVG Version: 6.00 Build 0)  -->
<svg version="1.1" id="Layer_1" xmlns="http://www.w3.org/2000/svg" xmlns:xlink="http://www.w3.org/1999/xlink" x="0px" y="0px"
	 viewBox="0 0 125 22" enable-background="new 0 0 125 22" xml:space="preserve">
<g>
	<path fill="#C1C0BE" d="M123.1,17.1c-1.1,0-1.9,0.9-1.9,1.9c0,1.1,0.9,1.9,1.9,1.9c1,0,1.9-0.9,1.9-1.9
		C125,18,124.1,17.1,123.1,17.1 M114.3,14.3c1.5,0.2,3.2,0.6,3.2,2.4c0,0.8-0.4,1.5-1,1.9c-0.7,0.5-1.6,0.7-2.4,0.7
		c-1.2,0-3-0.4-4-1.2c-0.7-0.6-0.7-0.9-0.8-2.7c0-0.7-0.4-1-0.9-1c-0.7,0-1,0.4-1,1.1c0,0.8,0.2,1.6,0.2,2.4c0,0.8-0.2,1.6-0.2,2.5
		c0,0.7,0.4,1.2,1.1,1.2c0.7,0,1.2-0.6,1-1.7c1.2,1,2.8,1.4,4.3,1.4c3,0,6.2-1.5,6.2-4.9c0-3.1-2.1-4-6.2-4.5
		c-2.6-0.3-3.5-0.8-3.5-2.3c0-1.8,1.8-2.6,3.3-2.6c1,0,2,0.5,2.8,1.1c0.5,0.4,0.7,0.6,0.7,1.8c0,1,0.4,1.4,1,1.4
		c0.7,0,1.1-0.5,1.1-1.1c0-0.7-0.2-1.5-0.2-2.2c0-0.7,0.2-1.5,0.2-2.2c0-0.6-0.4-1-1-1c-0.8,0-1,0.6-1,1.2c-1-0.8-2.3-1-3.5-1
		c-2.9,0-5.8,1.6-5.8,4.8C107.8,13.5,111.4,13.9,114.3,14.3 M90.4,16.2c0,1.5,0.4,2.9,1.6,3.9c1.1,0.8,2.6,1.2,4,1.2
		c2,0,3.7-0.5,4.8-2.2h0.1c0,1.2,0.1,1.8,0.7,1.8c0.6,0,1.1-0.3,1.7-0.3c0.6,0,1.1,0.3,1.7,0.3c0.6,0,1.3-0.4,1.3-1.1
		c0-0.6-0.4-1-1-1c-0.4,0-0.9,0.2-1.4,0.2c-0.6,0-0.9-0.4-0.9-2.5v-5.6c0-1.6,0.1-3,0.1-4.5c0-0.6-0.2-1-0.9-1
		c-0.6,0-1.1,0.3-1.7,0.3c-0.6,0-1.2-0.3-1.8-0.3c-0.7,0-1.4,0.4-1.4,1.1c0,0.6,0.4,1,1,1c0.4,0,0.9-0.2,1.4-0.2
		c0.6,0,1.1,0.7,1.1,2.5v2c0,1.4-0.1,3.6-0.5,4.9c-0.5,1.8-2.1,2.6-3.9,2.6c-1.5,0-2.9-0.7-3.4-2.1c-0.3-1-0.3-2.9-0.3-4v-1.3
		c0-2,0.2-2.7,0.2-5.2c0-0.7-0.1-1.2-1-1.2c-0.6,0-1.1,0.3-1.7,0.3c-0.6,0-1.2-0.3-1.7-0.3c-0.8,0-1.5,0.4-1.5,1.1c0,0.6,0.4,1,1,1
		c0.4,0,0.9-0.2,1.4-0.2c0.6,0,1,0.6,1,2.5V16.2z M75.4,13.1c0-1.3,0.3-2.9,1-4c0.9-1.5,2.1-2,3.8-2c1.4,0,2.8,0.5,3.6,1.7
		c0.8,1.2,1.1,2.9,1.1,4.2c0,3.2-1.2,6.3-4.8,6.3C76.6,19.3,75.4,16.1,75.4,13.1 M73,13.2c0,4.3,2.3,8.1,7,8.1
		c4.8,0,7.3-3.7,7.3-8.2c0-2-0.6-4.2-1.9-5.8c-1.4-1.7-3.3-2.3-5.4-2.3C75.2,5.1,73,8.9,73,13.2 M67.9,0.5c-0.9,0-1.7,0.7-1.7,1.7
		c0,1,0.8,1.7,1.7,1.7c1,0,1.7-0.8,1.7-1.7C69.6,1.3,68.9,0.5,67.9,0.5 M67.3,16.5c0,1.8-0.2,2.5-0.9,2.5c-0.5,0-1-0.2-1.4-0.2
		c-0.6,0-1,0.4-1,1c0,0.6,0.5,1.1,1,1.1c1,0,1.9-0.3,3.2-0.3c1.3,0,2.1,0.3,3.1,0.3c0.6,0,1.3-0.4,1.3-1.1c0-0.6-0.4-1-1-1
		c-0.4,0-0.9,0.2-1.2,0.2c-0.5,0-0.8-0.5-0.8-1.2V6.7c0-0.6-0.1-1.3-0.8-1.3c-0.6,0-1,0.3-1.7,0.3c-0.7,0-1.2-0.3-2-0.3
		c-0.6,0-1,0.4-1,1.1c0,0.6,0.4,1,1,1c0.4,0,0.9-0.2,1.4-0.2c0.7,0,0.9,0.4,0.9,2.5V16.5z M57.1,19.3c-3.5,0-4.6-3.2-4.6-6.1
		c0-2.9,1.4-6.1,4.7-6.1c1.3,0,3.2,0.8,3.3,2.3c-0.8,0-1.5,0.5-1.5,1.4c0,1,0.8,1.6,1.8,1.6c1.5,0,2.2-1.3,2.2-2.7
		c0-1.4-0.9-2.8-2-3.6c-1-0.7-2.4-1.1-3.6-1.1c-5,0-7.3,3.8-7.3,8.4c0,4.2,2.4,7.8,6.9,7.8c1.8,0,3.5-0.6,4.8-1.9
		c0.8-0.8,1.6-2.5,1.6-3.7c0-0.6-0.5-1.2-1.2-1.2c-1,0-1.2,1-1.4,1.8C60.4,18.2,59,19.3,57.1,19.3 M44.6,0.5c-0.9,0-1.7,0.7-1.7,1.7
		c0,1,0.8,1.7,1.7,1.7c1,0,1.7-0.8,1.7-1.7C46.3,1.3,45.5,0.5,44.6,0.5 M44,16.5c0,1.8-0.2,2.5-0.9,2.5c-0.5,0-1-0.2-1.4-0.2
		c-0.6,0-1,0.4-1,1c0,0.6,0.5,1.1,1,1.1c1,0,1.9-0.3,3.2-0.3c1.3,0,2.1,0.3,3.1,0.3c0.6,0,1.3-0.4,1.3-1.1c0-0.6-0.4-1-1-1
		c-0.4,0-0.9,0.2-1.2,0.2c-0.5,0-0.8-0.5-0.8-1.2V6.7c0-0.6-0.1-1.3-0.8-1.3c-0.6,0-1,0.3-1.7,0.3c-0.7,0-1.2-0.3-2-0.3
		c-0.6,0-1,0.4-1,1.1c0,0.6,0.4,1,1,1c0.4,0,0.9-0.2,1.4-0.2c0.7,0,0.9,0.4,0.9,2.5V16.5z M34.3,16.5c0,1.7-0.1,2.5-0.9,2.5
		c-0.5,0-1-0.2-1.4-0.2c-0.6,0-1,0.4-1,1c0,0.7,0.7,1.1,1.3,1.1c1,0,1.8-0.3,3.2-0.3c1.5,0,2.1,0.3,3.1,0.3c0.6,0,1.3-0.4,1.3-1.1
		c0-0.6-0.4-1-1-1c-0.4,0-0.9,0.2-1.4,0.2c-0.5,0-0.9-0.3-0.9-2.5v-15c0-1.1-0.1-1.5-0.8-1.5c-0.6,0-0.8,0.3-1.6,0.3
		c-0.6,0-1.1-0.3-2-0.3c-0.7,0-1.4,0.4-1.4,1.1c0,0.6,0.4,1,1,1c0.7,0,1.1-0.2,1.6-0.2c0.4,0,0.9,0.1,0.9,2.5V16.5z M19.5,11.4
		c0.2-2.5,2-4.3,4.6-4.3c2.6,0,4,1.9,4.2,4.3H19.5z M29.3,13.5c1.4,0,1.4-0.1,1.4-1.6c0-4-2.7-6.9-6.7-6.9c-2.1,0-4.1,0.9-5.5,2.6
		c-1.2,1.6-1.8,3.8-1.8,5.8c0,4.4,2.4,7.9,7.1,7.9c1.7,0,3.6-0.5,4.8-1.7c0.9-0.8,1.8-2.2,1.8-3.4c0-0.7-0.5-1.1-1.2-1.1
		c-0.8,0-1,0.7-1.1,1.3c-0.6,1.9-2.1,2.9-4.1,2.9c-3.3,0-4.9-2.8-4.8-5.8H29.3z M6.9,7.1c1.5,0,2.7,0.5,3.6,1.7c0.9,1.2,1,2.9,1,4.3
		c0,1.4-0.1,3-0.7,4.2c-0.7,1.4-2.1,2.1-3.7,2.1c-3.3,0-4.6-3.2-4.6-6.1C2.5,10.4,3.5,7.1,6.9,7.1 M13.7,1.3c0-1-0.2-1.3-0.5-1.3
		c-0.6,0-1,0.3-1.8,0.3C10.6,0.3,10.1,0,9.3,0C8.7,0,8.2,0.4,8.2,1.1c0,0.6,0.4,1,1,1c0.4,0,0.9-0.2,1.4-0.2c0.6,0,0.9,0.3,0.9,2.5
		v2.9h-0.1c-1-1.6-2.8-2.2-4.6-2.2C2.1,5.1,0,8.9,0,13.1c0,4.3,2.2,8.2,6.9,8.2c1.8,0,3.7-0.6,4.6-2.1h0.1v0.3c0,1.1,0.3,1.4,1,1.4
		c0.7,0,1-0.3,1.6-0.3c0.7,0,1.2,0.3,1.8,0.3c0.5,0,1-0.4,1-1.1c0-0.6-0.4-1-1-1c-0.4,0-0.9,0.2-1.4,0.2c-0.6,0-0.9-0.4-0.9-2.5V1.3
		z"/>
</g>
</svg>
