<?xml version="1.0" encoding="utf-8"?>
<!-- Generator: Adobe Illustrator 18.1.1, SVG Export Plug-In . SVG Version: 6.00 Build 0)  -->
<svg version="1.1" id="Layer_1" xmlns="http://www.w3.org/2000/svg" xmlns:xlink="http://www.w3.org/1999/xlink" x="0px" y="0px"
	 viewBox="0 0 136 22" enable-background="new 0 0 136 22" xml:space="preserve">
<g>
	<path fill="#C1C0BE" d="M39.5,6.5c-4.5,0-7.7,3.2-7.7,7.9c0,4.5,3.1,7.6,7.7,7.6c4.5,0,7.7-3.1,7.7-7.6C47.2,9.8,44,6.5,39.5,6.5z
		 M39.5,18.8c-2.2,0-3.6-1.6-3.6-4.4c0-3.4,1.9-4.7,3.6-4.7c2.5,0,3.6,2.3,3.6,4.7C43.1,16.5,42.1,18.8,39.5,18.8z"/>
	<path fill="#C1C0BE" d="M102.4,6.5c-4.4,0-7.2,3-7.2,7.8c0,5,3.7,7.7,7.3,7.7c2.4,0,3.9-0.5,4.9-0.9c0.5-0.2,0.7-0.6,0.6-1.1
		l-0.4-1.3c-0.2-0.6-0.7-0.8-1.2-0.6c0,0-0.1,0-0.2,0.1c-0.5,0.2-1.7,0.6-3,0.6c-1.7,0-3.6-1.2-3.6-3.5c0,0,0-0.2,0-0.2h7.3
		c0.7,0,1.4-0.2,1.6-0.8c0.2-0.5,0.4-1,0.4-1.4v-0.1C109,9.2,106,6.5,102.4,6.5z M104.2,12.1c0,0,0-0.1-0.1-0.1h-4.2
		c-0.1,0-0.1,0-0.1,0c0-0.9,0.6-2.2,2.1-2.2C103.4,9.8,104.2,10.9,104.2,12.1C104.2,12.1,104.2,12.1,104.2,12.1z"/>
	<path fill="#C1C0BE" d="M16,7.3V2.4c0-0.6-0.2-0.8-0.6-0.8c0,0,0,0,0,0c-1,0.1-3.9,0.1-6.7,0.1c-3,0-7-0.1-8-0.1
		C0.3,1.5,0,1.8,0,2.3L0,3.7c0,0.2,0.2,0.6,0.5,0.7l1.1,0.3c0,0,0.3,0,0.4,0c0.4,0.1,1,0.2,1,0.7V18c0,0.4-0.5,0.6-1,0.6
		c0,0-0.2,0-0.2,0L0.6,19c-0.3,0.1-0.5,0.4-0.5,0.7l0,1.4c0,0.4,0.2,0.7,0.5,0.7c0,0,0,0,0.1,0c1-0.1,2.7-0.1,4.3-0.1
		c1.5,0,3.3,0.1,4.3,0.1c0,0,0.1,0,0.1,0c0.3,0,0.6-0.3,0.6-0.7l0.1-1.5c0-0.3-0.2-0.6-0.5-0.7l-1.8-0.3l-0.1,0
		C7.2,18.6,7,18.5,7,18v-4.7C7,13.1,7,13,7,13c0,0,0,0,0,0h6.2c0.4,0,0.9-0.2,0.9-0.8l0.1-1.7c0-0.3,0-0.3-0.2-0.5
		c-0.1-0.1-0.3-0.1-0.6-0.1H7c0,0,0-0.2,0-0.2c0,0,0-0.2,0-0.3V5.9C7,5,7.8,4.8,9.3,4.8c0.1,0,0.2,0,0.4,0c0.1,0,0.3,0,0.4,0
		c1.7,0,3.3,0.2,3.5,1.4l0.2,1.1C13.8,7.9,14.2,8,14.4,8h1.2c0.3,0,0.3-0.1,0.3-0.2C16.2,7.6,16,7.3,16,7.3z"/>
	<path fill="#C1C0BE" d="M130.8,12c-1.3-0.4-2.4-0.7-2.4-1.4c0-0.2,0-0.9,1.6-0.9c1,0,2.3,0.8,2.8,1.7c0.2,0.3,0.4,0.5,0.7,0.5
		c0,0,0,0,0,0l0.8,0c0.4,0,0.7-0.3,0.7-0.7l0.1-2.2c0-0.5,0-0.9-0.5-1.3c-0.9-0.7-2.8-1.2-4.6-1.2c-2.4,0-5.9,1.2-5.9,4.5
		c0,3.6,3.1,4.4,5.4,5.1c1.3,0.4,2.5,0.7,2.5,1.4c0,1.1-1.6,1.3-2.3,1.3c-1.6,0-2.7-0.7-3.3-2.1c-0.1-0.2-0.3-0.5-0.8-0.5l-0.8,0
		c-0.3,0-0.6,0.3-0.7,0.7l-0.2,2.6c0,0.4,0.1,0.8,0.4,1.2c1.1,1.2,4,1.3,5.2,1.3c0.9,0,2.6-0.1,4-1.1c1.4-0.9,2.1-2.3,2.1-4
		C135.9,13.5,133,12.7,130.8,12z"/>
	<path fill="#C1C0BE" d="M95.2,19.1c0-0.4-0.3-0.6-0.6-0.6c-0.1,0-0.1,0-0.2,0c0,0-0.5,0.1-0.7,0.2c0,0-0.1,0-0.1,0
		c-0.4,0-0.4-0.1-0.5-0.3C93,18.2,93,18,93,17.6V1.2c0-0.8-0.7-1.2-1.2-1.1c-0.4,0.1-1.4,0.3-2.5,0.5c-0.6,0.1-1.3,0.3-1.9,0.4
		c-0.7,0.2-0.7,0.6-0.7,0.8L86.8,3c0.1,0.4,0.3,0.6,0.7,0.7l0.9,0.1c0.3,0,0.6,0.1,0.6,0.7v3c-1-0.6-2.3-0.9-3.5-0.9
		c-4.2,0-6.9,3-6.9,7.9c0,5.2,3.3,7.6,6.4,7.6c2.2,0,3.7-0.7,4.8-2.2c0.4,1.4,1.4,2.2,2.8,2.2c1.2,0,2.2-0.4,2.3-0.4
		c0.2,0,0.4-0.1,0.5-0.3c0.1-0.1,0.1-0.3,0.1-0.4L95.2,19.1z M89,15.3c0,1.7-1.2,3.5-2.9,3.5c-1.9,0-3.3-1.9-3.3-4.5
		c0-2.6,1.4-4.4,3.3-4.4c1.4,0,1.9,0.9,2.9,1.1V15.3z"/>
	<path fill="#C1C0BE" d="M78,18.9l-1.5-0.3l0.1,0c-0.5-0.1-0.7-0.2-0.7-0.7V5.4c0-0.5,0.2-0.6,0.7-0.7L78,4.4c0.3,0,0.4-0.4,0.4-0.7
		l-0.1-1.5c0-0.4-0.2-0.7-0.6-0.7c0,0-0.1,0-0.1,0c-1.1,0.1-3.1,0.1-4.3,0.1c-1.2,0-3.3-0.1-4.3-0.1c-0.4,0-0.6,0.2-0.6,0.7
		l-0.1,1.5c0,0.3,0.1,0.6,0.5,0.7l1.5,0.3l-0.1,0C70.7,4.8,71,4.9,71,5.4v12.4c0,0.5-0.3,0.6-0.7,0.7l-1.4,0.3
		c-0.3,0-0.5,0.4-0.4,0.7l0.1,1.5c0,0.4,0.2,0.7,0.6,0.7c0,0,0.1,0,0.1,0c1.1-0.1,3-0.1,4.2-0.1c1.3,0,3.3,0.1,4.4,0.1
		c0,0,0.1,0,0.1,0c0.2,0,0.3-0.1,0.4-0.2c0.1-0.1,0.1-0.3,0.1-0.4l0.1-1.5C78.4,19.3,78.3,18.9,78,18.9z"/>
	<path fill="#C1C0BE" d="M122.8,18.6c-0.1,0-0.1,0-0.2,0c-0.2,0.1-0.8,0.2-1,0.2c-0.1,0-0.6,0-0.6-0.9v-6.2c0-3.4-2-5.2-6-5.2
		c-2,0-3.7,0.4-4.6,0.8c-0.7,0.3-1.3,0.7-1,1.7l0.5,1.4c0.1,0.3,0.4,0.5,0.7,0.5c0.2,0,0.3,0,0.5-0.1c0.4-0.2,1.9-1,3.8-1
		c1.6,0,2.3,0.5,2.3,1.8c0,0.8-0.1,0.8-0.5,0.8l-2.6,0.3c-3.6,0.4-5.4,2.1-5.4,5c0,2.7,1.9,4.5,5.1,4.5c2.1,0,3.3-0.9,4.2-1.8
		c0.5,1.6,2.1,1.8,2.7,1.8c1.1,0,2.2-0.4,2.4-0.4c0.3-0.1,0.6-0.4,0.6-0.8l-0.2-1.6C123.4,18.8,123.1,18.6,122.8,18.6z M117,16.2
		c0,1.9-1.4,2.6-2.4,2.6c-0.7,0-1.7-0.2-1.7-1.6c0-1,0.6-1.6,1.9-1.8l2.5-0.4c0,0,0,0,0.1,0c0,0-0.1,0-0.1,0c0,0-0.1,0-0.1,0.1V16.2
		z"/>
	<path fill="#C1C0BE" d="M64.5,19.1c0-0.4-0.3-0.6-0.6-0.6c-0.1,0-0.1,0-0.2,0c0,0-0.5,0.1-0.7,0.2c-0.4,0-0.7-0.1-0.7-0.3
		C62.1,18.2,62,18,62,17.6V1.2c0-0.8-0.6-1.2-1.1-1.1c-0.4,0.1-1.4,0.3-2.4,0.5c-0.6,0.1-1.3,0.3-1.8,0.4c-0.7,0.2-0.7,0.6-0.7,0.8
		L56.2,3c0.1,0.4,0.3,0.6,0.7,0.7l0.7,0.1c0.3,0,0.4,0.1,0.4,0.7v3c-1-0.6-2.1-0.9-3.3-0.9c-4.2,0-6.9,3-6.9,7.9
		c0,5.2,3.3,7.6,6.4,7.6c2.2,0,3.7-0.7,4.8-2.2c0.4,1.4,1.4,2.2,2.8,2.2c1.2,0,2.2-0.4,2.3-0.4c0.2,0,0.4-0.1,0.5-0.3
		c0.1-0.1,0.1-0.3,0.1-0.4L64.5,19.1z M58,15.3c0,1.7-1,3.5-2.7,3.5c-1.9,0-3.2-1.9-3.2-4.5c0-2.6,1.2-4.4,3.2-4.4
		c1.4,0,2.7,0.9,2.7,1.1V15.3z"/>
	<path fill="#C1C0BE" d="M36,4.7c-0.3,0.5-0.3,0.6-0.3,0.7c0,0.3,0.2,0.4,0.5,0.4c0.2,0,0.3-0.1,0.5-0.4c0.9-2.1,2.1-3.6,3.3-4.3
		C40.5,1,40.5,1,40.6,0.9c0.1-0.1,0.1-0.1,0.1-0.2c0-0.2-0.2-0.4-0.5-0.4c-0.3,0-0.9,0.2-1.2,0.5c-0.3,0.2-0.5,0.4-1,0.9
		c0-0.1,0-0.2,0-0.3c0-0.4-0.3-0.9-0.5-0.9c-0.1,0-0.2,0.1-0.2,0.3C37.4,1.3,36.8,2.9,36,4.7z"/>
	<path fill="#C1C0BE" d="M33.3,5.9c1,0,2.3-0.9,2.3-1.6c0-0.1-0.1-0.3-0.2-0.3c-0.1,0-0.2,0.1-0.3,0.1C34.4,4.8,34,5,33.4,5
		C33.1,5,33,5,33,4.6c0-0.2,0-0.4,0.2-0.6c0.2,0.1,0.4,0.1,0.5,0.1c0.7,0,1.4-0.5,2-1.3c0.3-0.5,0.6-1.1,0.6-1.4
		c0-0.6-0.3-0.9-0.9-0.9c-0.6,0-1.5,0.8-2.4,1.9c-0.7,0.9-1,1.6-1,2.3C32.1,5.3,32.6,5.9,33.3,5.9z M34.3,2.2c0.4-0.5,0.9-1,1.1-1
		c0.1,0,0.1,0.1,0.1,0.2c0,0.2-0.2,0.6-0.4,0.8c-0.6,0.7-1,1-1.3,1h-0.3C34.1,2.5,34.1,2.4,34.3,2.2z"/>
	<path fill="#C1C0BE" d="M20.9,5.9c0.5,0,0.8-0.2,0.8-0.6c0-0.1-0.1-0.3-0.1-0.6c-0.1-0.4-0.2-1.3-0.2-1.8c0-0.9,0.3-1.9,0.5-1.9
		C21.9,1,22,1.1,22,1.1v0.1c0,0-0.1-0.2-0.1-0.2c0,0.1,0,0,0,0H22h0.1c0,0,0.2,0.2,0.2,0.1c0.1-0.1,0.2-0.1,0.2-0.3
		c0-0.5-0.3-0.8-0.8-0.8c-0.4,0-0.7,0.3-1,0.8c-0.2,0.5-0.4,1.2-0.4,1.8c0,0.5,0.2,1.7,0.3,2.1c0.1,0.1,0.1,0.2,0.1,0.2
		c0,0.1,0,0.1-0.1,0.1c-0.6,0-1.1-0.4-1.1-0.8c0-0.1,0-0.1,0.1-0.2c0-0.1,0-0.1,0-0.1c0-0.1-0.1-0.3-0.3-0.3c-0.1,0-0.3,0.1-0.3,0.1
		c-0.2,0.2-0.3,0.5-0.3,0.7c0,0.3,0.2,0.7,0.5,0.9C19.7,5.7,20.4,5.9,20.9,5.9z"/>
	<path fill="#C1C0BE" d="M29,5.9c0.7,0,1.5-0.5,2.2-1.3c0.6-0.7,1.1-1.9,1.1-2.8c0-0.2-0.1-0.6-0.2-0.7c-0.1-0.2-0.4-0.4-0.7-0.4
		c-0.3,0-0.7,0.2-1.1,0.5c-0.2,0.2-0.4,0.3-0.7,0.8c0.1-0.4,0.1-0.6,0.1-0.9c0-0.3-0.2-0.6-0.5-0.6c-0.2,0-0.2,0.1-0.3,0.6
		c0,0.3-0.4,1.3-1.6,4.1c-0.3,0.8-0.6,1.4-0.8,1.9c-1-0.4-2.1-0.6-3.3-0.6c-4.5,0-7.7,3.2-7.7,7.9c0,4.5,3.1,7.6,7.7,7.6
		c4.5,0,7.7-3.1,7.7-7.6c0-3.1-1.4-5.5-3.6-6.8c0.3-0.7,0.6-1.4,0.9-2C28.6,5.8,28.8,5.9,29,5.9z M30.6,2.3c0.2-0.2,0.3-0.3,0.4-0.4
		c0.1-0.2,0.2-0.2,0.3-0.2c0.1,0,0.2,0.1,0.2,0.3c0,1.2-1.4,3.2-2.3,3.2C29,5.1,29,5,28.9,4.6C29.6,3.3,29.8,3,30.6,2.3z M23.4,18.8
		c-2.2,0-3.6-1.6-3.6-4.4c0-3.4,1.9-4.7,3.6-4.7c2.5,0,3.6,2.3,3.6,4.7C27.1,16.5,26.1,18.8,23.4,18.8z"/>
	<path fill="#C1C0BE" d="M23.1,5.9c0.4,0,0.7-0.2,1.4-0.9c0.3-0.3,0.3-0.3,1-1.3c0,0.2,0,0.5,0,0.6c0,0.5,0.2,1,0.4,1.3
		C26.2,5.9,26.4,6,26.5,6c0.2,0,0.4-0.1,0.4-0.3c0-0.1,0-0.1-0.1-0.2c-0.3-0.4-0.4-0.6-0.4-1c0-0.7,0.4-2,0.9-2.7
		c0.3-0.4,0.3-0.5,0.3-0.7c0-0.2-0.3-0.6-0.6-0.6c-0.2,0-0.2,0.1-0.7,0.9C25.9,2,25.1,3.1,24.4,4c-0.6,0.7-0.7,0.8-0.9,0.8
		c-0.1,0-0.1-0.1-0.1-0.2c0-0.5,1-2.7,1.6-3.6C25,1,25,0.9,25,0.9c0-0.3-0.2-0.5-0.5-0.5c-0.1,0-0.2,0-0.3,0.1
		c-0.1,0.1-1,1.8-1.2,2.4C22.6,4,22.4,4.5,22.4,5C22.4,5.6,22.7,5.9,23.1,5.9z"/>
</g>
</svg>
