<?xml version="1.0" standalone="no"?>
<!DOCTYPE svg PUBLIC "-//W3C//DTD SVG 20010904//EN"
 "http://www.w3.org/TR/2001/REC-SVG-20010904/DTD/svg10.dtd">
<svg version="1.0" xmlns="http://www.w3.org/2000/svg"
 width="16.000000pt" height="16.000000pt" viewBox="0 0 16.000000 16.000000"
 preserveAspectRatio="xMidYMid meet">
<metadata>
Created by potrace 1.11, written by Peter Selinger 2001-2013
</metadata>
<g transform="translate(0.000000,16.000000) scale(0.002941,-0.002941)"
fill="#000000" stroke="none">
<path d="M3022 5429 c-29 -4 -64 -14 -78 -24 -14 -9 -35 -18 -46 -20 -11 -3
-40 -14 -64 -25 -48 -24 -192 -56 -293 -65 -36 -4 -77 -8 -91 -10 -14 -3 -56
-7 -95 -10 -38 -3 -86 -7 -105 -10 -101 -13 -129 -17 -170 -25 -51 -9 -68 -5
-24 6 40 10 112 43 119 54 9 14 -37 40 -72 40 -18 0 -45 -5 -60 -12 -40 -17
-93 -76 -93 -104 0 -18 -6 -24 -22 -25 -79 -3 -103 -11 -305 -112 -156 -78
-166 -81 -231 -81 -83 0 -129 23 -155 77 -10 20 -22 37 -27 37 -13 0 -22 -38
-24 -102 -3 -74 -24 -103 -105 -147 -77 -41 -111 -39 -123 7 -11 43 -40 42
-84 -2 -37 -37 -46 -84 -19 -106 23 -19 18 -57 -14 -104 -43 -63 -58 -73 -78
-54 -14 15 -14 20 0 63 15 43 15 46 -1 51 -9 3 -27 10 -40 15 -17 7 -27 5 -37
-5 -8 -8 -19 -16 -24 -18 -6 -1 -13 -34 -16 -72 -9 -94 -16 -108 -75 -146 -57
-37 -82 -76 -85 -135 -1 -38 -4 -41 -62 -70 -69 -35 -93 -52 -93 -69 0 -7 25
-41 55 -76 32 -37 55 -73 55 -86 0 -13 6 -27 13 -31 24 -14 35 -45 27 -72 -15
-50 -90 -166 -117 -182 -23 -13 -30 -27 -41 -80 -61 -293 -121 -486 -181 -581
-33 -51 -45 -98 -69 -253 -20 -127 -23 -169 -23 -300 0 -147 20 -283 76 -515
44 -184 180 -497 306 -706 138 -231 294 -413 394 -464 28 -14 57 -31 66 -38 9
-7 27 -15 40 -17 75 -15 104 -33 142 -89 51 -77 86 -108 202 -182 121 -78 221
-127 295 -144 66 -15 118 -40 144 -69 11 -12 25 -21 33 -21 8 0 78 -33 156
-74 169 -87 199 -98 274 -97 395 5 595 13 691 27 19 3 33 1 33 -5 1 -6 3 -15
4 -21 1 -5 3 -34 4 -64 1 -72 17 -88 79 -80 80 10 95 13 106 24 5 5 20 10 33
10 17 0 23 -6 23 -21 0 -19 5 -20 87 -18 84 2 170 19 263 53 53 20 100 17 204
-14 42 -13 79 -20 82 -17 3 3 1 14 -5 25 -6 12 -11 30 -11 40 0 24 57 76 104
96 19 8 37 19 40 25 4 6 16 11 27 11 10 0 19 7 19 15 0 15 -33 38 -44 30 -3
-3 0 3 8 11 17 20 46 12 53 -15 4 -17 9 -18 32 -10 14 6 40 23 56 39 17 16 46
31 65 35 44 7 164 66 209 102 150 122 152 124 140 139 -6 7 -16 11 -23 7 -7
-4 -7 -1 1 7 9 10 16 10 26 2 21 -18 45 6 51 52 4 21 11 46 17 55 7 12 8 8 4
-16 -11 -56 15 -42 67 36 13 19 32 39 43 45 11 6 39 28 62 49 24 20 47 37 52
37 6 0 35 25 66 55 56 56 81 98 69 117 -3 5 4 12 15 15 12 3 20 10 19 17 -1 6
16 30 37 53 197 210 300 409 377 733 17 72 21 128 24 367 5 272 0 334 -25 319
-4 -3 -16 1 -27 8 -20 15 -19 -6 -13 366 2 153 -6 245 -27 277 -7 12 -16 44
-18 72 -2 27 -7 54 -10 59 -3 5 -17 53 -31 107 -27 102 -145 441 -168 485 -11
21 -11 31 0 59 14 33 14 33 -9 27 -13 -3 -38 -6 -56 -6 -18 0 -31 -4 -27 -9 3
-5 1 -12 -4 -15 -15 -10 -22 10 -25 67 -5 91 1 94 72 32 35 -30 69 -55 75 -55
61 0 212 189 179 222 -18 18 -53 -3 -136 -82 l-74 -71 -22 28 c-19 24 -21 38
-18 97 l3 69 -30 9 c-16 5 -58 9 -91 10 -58 1 -62 3 -79 34 -25 47 -80 102
-170 170 -44 34 -109 89 -144 123 -36 33 -68 61 -73 61 -5 0 -16 16 -25 35
-19 40 -46 51 -87 36 -36 -14 -43 -14 -24 2 9 6 19 22 22 34 15 51 -240 258
-411 334 -37 17 -86 38 -108 48 -22 10 -69 28 -105 40 -89 29 -93 32 -81 64
10 27 10 28 -24 27 -3 0 -28 11 -55 25 l-50 25 -40 -37 c-37 -33 -42 -35 -57
-21 -14 15 -14 18 6 39 25 27 27 52 6 69 -15 12 -34 11 -111 -5 -27 -6 -33 -4
-39 14 -11 35 -119 54 -233 40z m1869 -1237 c-7 -14 -8 -23 -1 -27 5 -3 10 -1
10 5 0 6 5 8 10 5 6 -4 2 -18 -11 -37 -12 -16 -21 -40 -21 -54 0 -13 -5 -21
-10 -17 -12 6 -6 133 7 153 13 21 28 -5 16 -28z m-1906 -329 c0 -177 3 -325 7
-328 4 -4 140 -8 303 -7 l295 0 0 -32 c1 -35 1 -483 0 -506 0 -13 -40 -15
-302 -15 l-303 0 1 -415 c1 -492 1 -497 30 -578 33 -93 87 -136 200 -157 112
-22 303 -1 352 38 7 5 15 7 18 5 6 -6 8 -557 2 -563 -6 -6 -118 -35 -158 -41
-19 -3 -41 -7 -48 -9 -19 -7 -196 -18 -272 -18 -478 2 -760 202 -807 573 -5
36 -8 313 -8 616 l0 552 -210 0 c-115 1 -215 1 -220 1 -7 1 -10 95 -9 269 1
147 2 270 3 273 0 4 90 7 199 7 108 0 206 1 217 1 20 1 20 7 19 324 0 177 1
325 4 330 2 4 157 6 345 5 l342 -3 0 -322z m2011 -1789 c1 -10 4 -31 7 -46 4
-20 2 -28 -8 -28 -8 0 -17 15 -21 36 -4 24 -13 38 -26 42 -10 2 -16 10 -13 16
3 6 8 19 11 29 6 16 8 15 28 -6 12 -13 22 -32 22 -43z m177 -190 c3 -4 -1 -20
-9 -37 -12 -22 -13 -32 -4 -37 8 -5 7 -12 -5 -24 -18 -18 -55 -22 -55 -6 0 6
11 10 25 10 33 0 32 18 0 22 -34 4 -34 19 1 39 16 9 28 22 27 28 -3 12 10 15
20 5z m-1366 -1291 c3 -8 -6 -26 -20 -41 -13 -15 -32 -42 -41 -59 -9 -18 -19
-33 -21 -33 -3 0 -17 23 -31 52 l-26 52 28 23 c42 33 99 37 111 6z m-161 -130
c-4 -48 -8 -89 -9 -90 -1 0 -29 -3 -62 -6 -54 -4 -105 7 -105 23 0 3 -6 15
-14 26 -13 17 -14 11 -11 -56 4 -69 2 -79 -26 -123 -16 -27 -35 -47 -41 -45
-18 6 -19 47 -3 79 14 27 17 28 31 14 9 -8 20 -13 25 -9 5 3 2 12 -6 20 -8 9
-15 21 -15 28 0 8 -6 19 -13 25 -11 8 -21 1 -45 -33 -36 -49 -113 -126 -165
-163 l-34 -24 -34 20 c-43 26 -85 27 -127 1 -42 -26 -42 -26 -42 10 0 24 10
38 56 74 31 24 68 50 83 57 14 8 28 17 31 20 11 14 500 236 524 238 5 1 6 -37
2 -86z m-687 -18 c26 -13 41 -33 41 -55 0 -14 -55 -21 -83 -11 -27 10 -45 50
-32 70 9 15 41 14 74 -4z m901 -114 c-5 -11 -10 -27 -10 -37 0 -13 3 -14 14
-5 9 8 16 8 20 2 8 -13 -24 -19 -51 -9 -24 8 -33 -6 -10 -15 7 -3 5 -6 -5 -6
-26 -1 -22 35 7 64 30 31 50 34 35 6z"/>
</g>
</svg>
