<?xml version="1.0" encoding="utf-8"?>
<!-- Generator: Adobe Illustrator 18.1.1, SVG Export Plug-In . SVG Version: 6.00 Build 0)  -->
<svg version="1.1" id="Layer_1" xmlns="http://www.w3.org/2000/svg" xmlns:xlink="http://www.w3.org/1999/xlink" x="0px" y="0px"
	 viewBox="0 0 110 18" enable-background="new 0 0 110 18" xml:space="preserve">
<g>
	<path fill="#009FE3" d="M31.9,5.3c-3.7,0-6.2,2.6-6.2,6.4c0,3.7,2.5,6.2,6.2,6.2c3.7,0,6.2-2.5,6.2-6.2C38.1,7.9,35.6,5.3,31.9,5.3
		z M34.9,11.6c0,1.7-0.8,3.6-2.9,3.6c-1.8,0-2.9-1.3-2.9-3.6c0-2.8,1.6-3.8,2.9-3.8C34,7.9,34.9,9.8,34.9,11.6z"/>
	<path fill="#009FE3" d="M82.6,5.3c-3.5,0-5.7,2.4-5.7,6.3c0,4.1,3.1,6.2,6,6.2c2,0,3.2-0.4,4-0.7c0.4-0.2,0.6-0.5,0.5-0.9l-0.3-1
		c-0.1-0.4-0.5-0.7-0.9-0.5c0,0-0.1,0-0.1,0c-0.4,0.1-1.4,0.5-2.5,0.5c-1.4,0-2.9-0.9-2.9-2.7c0,0,0,0,0,0h5.9
		c0.6,0,0.9-0.3,1.1-0.8c0.1-0.4,0.1-0.9,0.1-1.3v0C87.8,7.4,85.6,5.3,82.6,5.3z M80.7,9.8c0-0.7,0.5-1.8,1.7-1.8
		c1.2,0,1.8,0.9,1.8,1.8c0,0,0,0,0,0c0,0,0,0-0.1,0L80.7,9.8C80.7,9.8,80.7,9.8,80.7,9.8z"/>
	<path fill="#009FE3" d="M18.9,5.3c-3.7,0-6.2,2.6-6.2,6.4c0,3.7,2.5,6.2,6.2,6.2c3.7,0,6.2-2.5,6.2-6.2C25.2,7.9,22.6,5.3,18.9,5.3
		z M18.9,7.9c2,0,2.9,1.9,2.9,3.8c0,1.7-0.8,3.6-2.9,3.6c-1.8,0-2.9-1.3-2.9-3.6C16,8.9,17.6,7.9,18.9,7.9z"/>
	<path fill="#009FE3" d="M13.2,5.9V2c0-0.4-0.3-0.7-0.7-0.7c0,0,0,0-0.1,0c-0.8,0.1-3.2,0.1-5.5,0.1c-2.4,0-5.7-0.1-6.5-0.1
		C0.3,1.2,0,1.5,0,1.8L0,3c0,0.2,0.1,0.5,0.4,0.6l0.9,0.2c0,0,0.1,0,0.1,0C1.8,3.9,2,4,2,4.4v10.2c0,0.3-0.2,0.4-0.6,0.5
		c0,0-0.1,0-0.1,0l-0.9,0.2C0.2,15.4,0,15.7,0,15.9l0,1.2c0,0.3,0.2,0.6,0.4,0.6c0,0,0,0,0.1,0c0.8-0.1,2.2-0.1,3.5-0.1
		c1.2,0,2.7,0,3.5,0.1c0,0,0,0,0.1,0c0.3,0,0.4-0.2,0.4-0.6l0-1.2c0-0.2-0.2-0.5-0.4-0.6l-1.5-0.2l-0.1,0C5.8,15,5.6,15,5.6,14.6
		v-3.8c0-0.1,0-0.2,0-0.2c0,0,0,0,0,0h5c0.3,0,0.7-0.2,0.7-0.7l0.1-1.4c0-0.2,0-0.4-0.1-0.5c-0.1-0.1-0.3-0.2-0.5-0.2H5.7
		c0,0,0,0,0,0c0,0,0,0,0-0.1v-3c0-0.7,0.7-0.9,1.9-0.9c0.1,0,0.2,0,0.3,0c0.1,0,0.2,0,0.3,0c1.4,0,2.6,0.1,2.8,1.1l0.2,0.9
		c0.1,0.5,0.4,0.6,0.6,0.6h1c0.2,0,0.4-0.1,0.4-0.2C13.2,6.2,13.2,5.9,13.2,5.9z"/>
	<path fill="#009FE3" d="M105.8,9.7c-1-0.3-1.9-0.6-1.9-1.1c0-0.2,0-0.8,1.3-0.8c0.8,0,1.8,0.6,2.2,1.4c0.1,0.3,0.4,0.4,0.6,0.4
		c0,0,0,0,0,0l0.7,0c0.3,0,0.5-0.2,0.5-0.6l0.1-1.8c0-0.4,0-0.7-0.4-1.1c-0.7-0.6-2.3-1-3.7-1c-1.9,0-4.7,1-4.7,3.7
		c0,2.9,2.5,3.6,4.3,4.1c1.1,0.3,2,0.6,2,1.2c0,0.9-1.3,1-1.8,1c-1.3,0-2.2-0.6-2.6-1.7c-0.1-0.2-0.2-0.4-0.6-0.4l-0.7,0
		c-0.3,0-0.5,0.2-0.5,0.6l-0.1,2.1c0,0.4,0.1,0.7,0.4,1c0.9,1,3.2,1.1,4.2,1.1c0.7,0,2.1-0.1,3.3-0.9c1.1-0.7,1.7-1.8,1.7-3.2
		C110,10.9,107.6,10.2,105.8,9.7z"/>
	<path fill="#009FE3" d="M77,15.4c0-0.3-0.2-0.5-0.5-0.5c0,0-0.1,0-0.1,0c0,0-0.4,0.1-0.6,0.1c0,0-0.1,0-0.1,0
		c-0.3,0-0.4-0.1-0.5-0.2c-0.1-0.1-0.1-0.4-0.1-0.6V1c0-0.7-0.5-1-0.9-0.9c-0.3,0.1-1.1,0.3-1.9,0.4c-0.5,0.1-1.1,0.2-1.5,0.3
		c-0.5,0.1-0.6,0.5-0.6,0.6l0.1,0.9c0,0.3,0.2,0.5,0.6,0.5L71.4,3c0.3,0,0.4,0.1,0.4,0.6V6C70.9,5.5,70,5.3,69,5.3
		c-3.4,0-5.6,2.4-5.6,6.4c0,4.2,2.7,6.1,5.2,6.1c1.8,0,3-0.5,3.9-1.7c0.3,1.1,1.2,1.7,2.3,1.7c1,0,1.8-0.3,1.9-0.3
		c0.1,0,0.3-0.1,0.4-0.3c0.1-0.1,0.1-0.2,0.1-0.4L77,15.4z M71.8,8.9v3.5c0,1.3-0.9,2.8-2.3,2.8c-1.5,0-2.6-1.5-2.6-3.7
		C67,9.4,68,8,69.6,8C70.7,8,71.6,8.7,71.8,8.9z"/>
	<path fill="#009FE3" d="M63.1,15.3L61.9,15l0,0c-0.4-0.1-0.7-0.1-0.7-0.6V4.4c0-0.4,0.3-0.5,0.7-0.6l1.2-0.2c0.3,0,0.4-0.3,0.4-0.6
		l0-1.2c0-0.3-0.2-0.6-0.4-0.6c0,0,0,0-0.1,0c-0.9,0.1-2.5,0.1-3.5,0.1c-1,0-2.6,0-3.5-0.1c-0.3,0-0.5,0.2-0.5,0.5l0,1.2
		c0,0.2,0.1,0.5,0.4,0.6l1.2,0.2l0,0c0.4,0.1,0.7,0.1,0.7,0.6v10.1c0,0.4-0.3,0.5-0.7,0.6l-1.2,0.2c-0.3,0-0.4,0.3-0.4,0.6l0,1.2
		c0,0.3,0.2,0.6,0.4,0.6c0,0,0,0,0.1,0c0.9-0.1,2.4-0.1,3.4-0.1c1,0,2.7,0,3.6,0.1c0,0,0,0,0.1,0c0.1,0,0.3-0.1,0.4-0.2
		c0.1-0.1,0.1-0.2,0.1-0.4l0-1.2C63.4,15.6,63.3,15.3,63.1,15.3z"/>
	<path fill="#009FE3" d="M99.8,15.5c0-0.3-0.2-0.5-0.5-0.5c0,0-0.1,0-0.1,0c-0.2,0.1-0.5,0.1-0.7,0.1c-0.1,0-0.4,0-0.4-0.7v-5
		c0-2.7-1.7-4.2-4.9-4.2c-1.6,0-3,0.3-3.7,0.6c-0.5,0.2-1.1,0.5-0.8,1.4L89,8.4c0.1,0.2,0.3,0.4,0.6,0.4c0.1,0,0.3,0,0.4-0.1
		c0.3-0.2,1.6-0.8,3.1-0.8c1.3,0,1.8,0.4,1.8,1.4c0,0.6-0.1,0.6-0.4,0.7l-2.1,0.2c-2.9,0.3-4.4,1.7-4.4,4c0,2.2,1.6,3.6,4.1,3.6
		c1.7,0,2.7-0.7,3.4-1.4c0.4,1.3,1.7,1.4,2.2,1.4c0.9,0,1.8-0.3,1.9-0.3c0.2-0.1,0.5-0.3,0.5-0.6L99.8,15.5z M94.9,12.3v0.8
		c0,1.6-1.3,2.1-2.1,2.1c-0.5,0-1.5-0.2-1.5-1.3c0-0.8,0.5-1.3,1.5-1.4L94.9,12.3C94.8,12.3,94.8,12.3,94.9,12.3
		C94.9,12.3,94.9,12.3,94.9,12.3C94.9,12.3,94.9,12.3,94.9,12.3z"/>
	<path fill="#009FE3" d="M52.2,15.4c0-0.3-0.2-0.5-0.5-0.5c0,0-0.1,0-0.1,0c0,0-0.4,0.1-0.6,0.1c-0.3,0-0.5-0.1-0.5-0.2
		c-0.1-0.1-0.1-0.4-0.1-0.6V1c0-0.7-0.5-1-0.9-0.9c-0.3,0.1-1.1,0.3-1.9,0.4c-0.5,0.1-1.1,0.2-1.5,0.3c-0.5,0.1-0.6,0.5-0.6,0.6
		l0.1,0.9c0,0.3,0.2,0.5,0.6,0.5L46.6,3C46.9,3,47,3.1,47,3.6V6c-0.8-0.5-1.7-0.7-2.7-0.7c-3.4,0-5.6,2.4-5.6,6.4
		c0,4.2,2.7,6.1,5.2,6.1c1.8,0,3-0.5,3.9-1.7c0.3,1.1,1.2,1.7,2.3,1.7c1,0,1.8-0.3,1.9-0.3c0.1,0,0.3-0.1,0.4-0.3
		c0.1-0.1,0.1-0.2,0.1-0.4L52.2,15.4z M47,8.9v3.5c0,1.3-0.9,2.8-2.3,2.8c-1.5,0-2.6-1.5-2.6-3.7c0-2.1,1-3.5,2.6-3.5
		C45.9,8,46.8,8.7,47,8.9z"/>
</g>
<path fill="#1D1D1B" d="M30.8,1.4c0-0.1,0-0.2,0-0.3c0-0.3-0.2-0.7-0.4-0.7c-0.1,0-0.2,0.1-0.2,0.2c0.1,0.4-0.4,1.7-1,3.1
	c-0.2,0.4-0.3,0.5-0.3,0.6c0,0.2,0.2,0.4,0.4,0.4c0.2,0,0.3-0.1,0.4-0.3c0.7-1.7,1.7-2.9,2.7-3.5c0.4-0.1,0.4-0.1,0.5-0.2
	c0.1,0,0.1-0.1,0.1-0.2c0-0.2-0.2-0.3-0.4-0.3c-0.3,0-0.7,0.2-1,0.4C31.3,0.8,31.2,1,30.8,1.4 M27.2,2.6c0.4-0.6,0.4-0.7,0.6-0.8
	C28.1,1.3,28.5,1,28.6,1c0,0,0.1,0.1,0.1,0.1c0,0.1-0.2,0.5-0.3,0.7c-0.5,0.6-0.8,0.8-1,0.8H27.2z M26.8,3.2
	c0.2,0.1,0.3,0.1,0.4,0.1c0.5,0,1.1-0.4,1.6-1.1c0.3-0.4,0.5-0.9,0.5-1.2c0-0.4-0.3-0.7-0.7-0.7c-0.4,0-1.2,0.6-1.9,1.6
	c-0.6,0.7-0.8,1.3-0.8,1.8c0,0.5,0.5,1,1,1c0.8,0,1.9-0.8,1.9-1.3c0-0.1-0.1-0.2-0.2-0.2c-0.1,0-0.1,0-0.2,0.1
	c-0.6,0.5-0.9,0.7-1.4,0.7c-0.3,0-0.3-0.1-0.3-0.4C26.7,3.5,26.7,3.4,26.8,3.2 M23.4,3.8c0.6-1.1,0.7-1.3,1.4-1.9
	c0.2-0.2,0.3-0.3,0.3-0.3c0.1-0.1,0.2-0.2,0.3-0.2c0.1,0,0.2,0.1,0.2,0.2c0,1-1.1,2.6-1.8,2.6C23.5,4.1,23.4,4,23.4,3.8 M24.1,1.6
	c0.1-0.3,0.1-0.4,0.1-0.7c0-0.3-0.1-0.4-0.4-0.4c-0.2,0-0.2,0.1-0.3,0.5c0,0.3-0.3,1-1.3,3.3c-0.9,2.2-1.1,2.8-1.1,3.2
	c0,0.3,0.2,0.5,0.4,0.5c0.1,0,0.2-0.1,0.2-0.2c0.1-0.5,0.8-2.2,1.3-3.2c0.2,0.2,0.4,0.3,0.6,0.3c0.6,0,1.2-0.4,1.8-1.1
	c0.5-0.6,0.9-1.6,0.9-2.2c0-0.2-0.1-0.5-0.1-0.6c-0.1-0.2-0.3-0.3-0.5-0.3c-0.2,0-0.6,0.2-0.9,0.4C24.5,1.1,24.4,1.3,24.1,1.6
	 M20.7,3c0,0.2,0,0.4,0,0.5c0,0.4,0.1,0.8,0.4,1.1c0.2,0.2,0.3,0.3,0.5,0.3c0.2,0,0.3-0.1,0.3-0.2c0-0.1,0-0.1-0.1-0.2
	c-0.2-0.3-0.3-0.5-0.3-0.8c0-0.6,0.3-1.6,0.7-2.2c0.2-0.4,0.3-0.4,0.3-0.6c0-0.2-0.3-0.5-0.5-0.5c-0.1,0-0.2,0-0.6,0.8
	c-0.3,0.5-0.9,1.4-1.5,2.1c-0.5,0.5-0.6,0.6-0.7,0.7c-0.1,0-0.1,0-0.1-0.1c0-0.4,0.8-2.2,1.3-2.9c0-0.1,0.1-0.1,0.1-0.2
	c0-0.2-0.2-0.4-0.4-0.4c-0.1,0-0.2,0-0.3,0.1c-0.1,0.1-0.8,1.5-1,2c-0.3,0.9-0.4,1.3-0.4,1.7c0,0.5,0.2,0.7,0.6,0.7
	c0.3,0,0.6-0.2,1.1-0.8C20.1,3.8,20.1,3.8,20.7,3 M17.9,1.2c0,0,0.1-0.1,0.2-0.1c0.1-0.1,0.1-0.2,0.1-0.4c0-0.4-0.3-0.7-0.6-0.7
	c-0.3,0-0.5,0.2-0.8,0.6c-0.2,0.4-0.3,1-0.3,1.5c0,0.4,0.1,1.3,0.3,1.7c0,0.1,0.1,0.2,0.1,0.2c0,0.1,0,0.1-0.1,0.1
	c-0.4,0-0.9-0.3-0.9-0.7c0,0,0-0.1,0-0.2c0-0.1,0-0.1,0-0.1c0-0.1-0.1-0.2-0.2-0.2c-0.1,0-0.2,0-0.3,0.1c-0.1,0.2-0.2,0.4-0.2,0.6
	c0,0.3,0.1,0.5,0.4,0.7c0.4,0.3,0.9,0.5,1.3,0.5c0.4,0,0.6-0.2,0.6-0.5c0-0.1,0-0.3-0.1-0.5c-0.1-0.3-0.2-1.1-0.2-1.5
	c0-0.7,0.2-1.5,0.3-1.5c0.1,0,0.1,0,0.1,0.1v0c0,0,0,0.1,0,0.1c0,0.1,0,0.2,0.1,0.2H17.9L17.9,1.2z"/>
</svg>
