<?xml version="1.0" encoding="utf-8"?>
<!-- Generator: Adobe Illustrator 20.1.0, SVG Export Plug-In . SVG Version: 6.00 Build 0)  -->
<svg version="1.1" id="Layer_2" xmlns="http://www.w3.org/2000/svg" xmlns:xlink="http://www.w3.org/1999/xlink" x="0px" y="0px"
	 viewBox="0 0 158 20" style="enable-background:new 0 0 158 20;" xml:space="preserve">
<style type="text/css">
	.st0{fill:#C1C0BE;}
	.st1{fill:#FFFFFF;}
</style>
<path class="st0" d="M78.1,13.8c0,0.1-0.1,0.2-0.3,0.1C77.8,13.8,77.9,13.9,78.1,13.8c-0.1,0-0.2,0-0.3,0c0-0.2,0.3-0.1,0.2-0.3
	C78.3,13.5,77.9,13.8,78.1,13.8 M77.5,13v0.1c-0.2,0,0-0.4-0.3-0.3c0-0.1,0.1-0.1,0.1-0.2c0.1,0,0.1,0.2,0.2,0.1
	C77.5,12.9,77.4,12.9,77.5,13 M77.1,5.5c0.1,0.1,0,0.1,0,0.2c0.1,0,0.1,0,0.1-0.1c0.2,0.1-0.2,0.2-0.1,0.4C77,6.3,77,5.5,77.1,5.5
	 M73.4,19C73.4,19.1,73.4,19.1,73.4,19c-0.1,0.3-0.1-0.3,0.2-0.2c0,0.1-0.1,0.1-0.1,0.2c0.1,0,0.1,0,0.1-0.1
	C73.8,19,73.6,19.1,73.4,19 M73.1,18.4c-0.1-0.2-0.1-0.1-0.2-0.4c0.1,0,0.2-0.2,0.4-0.1c0.1,0,0.2,0,0.1,0.1
	C73.3,18.1,73.2,18.3,73.1,18.4 M72.9,18.7c-0.2,0-0.5,0.1-0.6,0c-0.1-0.1-0.1-0.2-0.1-0.2c0.1,0.4,0.1,0.6-0.2,0.8
	c-0.1-0.1,0-0.3,0.1-0.4c0,0.1,0.1,0.2,0.1,0.1c-0.1,0-0.1-0.3-0.2-0.2c-0.3,0.4-0.5,0.6-0.8,0.8c-0.2-0.2-0.5-0.2-0.6,0
	c-0.1-0.1-0.1-0.2,0-0.3c0.6-0.5,1.5-0.8,2.3-1.2C73,18.4,72.8,18.5,72.9,18.7 M70.2,18.4c0.1-0.1,0.4,0,0.4,0.2
	C70.5,18.8,70.2,18.7,70.2,18.4 M78.8,11.4c-0.1,0-0.2,0-0.2-0.1c-0.1-0.7,0.1-1.4-0.1-2.2h-0.1c0-0.4-0.1-0.6-0.1-0.8
	c-0.2-0.7-0.4-1.1-0.6-1.7c-0.2,0,0.1-0.2,0-0.3c-0.1,0.1-0.5,0-0.3,0.1c-0.2,0.3-0.1-0.3-0.1-0.5c0.2,0.1,0.4,0.4,0.5,0.4
	c0.2,0,0.7-0.6,0.6-0.7c-0.1-0.2-0.4,0.2-0.7,0.5c-0.2,0-0.2-0.4-0.1-0.6c0.1-0.1-0.4-0.2-0.6-0.1c-0.3-0.6-0.9-0.8-1.3-1.3
	c-0.1,0-0.1-0.1-0.1-0.1c0-0.1-0.1-0.1-0.1-0.1c-0.1-0.3-0.4,0-0.4-0.1c0.1,0,0.1-0.1,0.1-0.2c-0.7-0.8-1.6-1.2-2.5-1.5
	c0-0.1,0.1-0.2,0.1-0.2c-0.3,0-0.3-0.2-0.5-0.1C72.2,1.8,72.2,2,72,2c-0.2-0.2,0.1-0.1,0.1-0.4c-0.1-0.3-0.6,0.2-0.6-0.1
	c-0.2-0.1-1-0.1-1.1,0.1c-0.1,0-0.2,0-0.2,0.1c-0.8,0.3-2.1,0.3-3,0.5c0.2-0.1,0.6-0.2,0.6-0.3c-0.3-0.4-0.9,0.1-0.8,0.4
	c-0.9,0-1.4,0.9-2.2,0.6c-0.1,0-0.1,0-0.2-0.1c-0.1-0.1-0.1-0.3-0.2-0.2c-0.1,0.1-0.1,0.3-0.1,0.5c-0.1,0.3-0.5,0.4-0.5,0.4
	s-0.2,0.1-0.3,0V3.3c0,0,0-0.1-0.1-0.1c-0.2,0-0.5,0.3-0.3,0.5c0.2,0.2-0.1,0.4-0.2,0.6c-0.3,0-0.1-0.3-0.1-0.4
	c-0.1,0-0.2-0.1-0.3-0.1c0,0.1-0.1,0-0.1,0.1c0,0.1,0,0.5-0.1,0.6C62.2,4.6,62,4.8,62,5.1c-0.1,0.2-0.7,0.2-0.5,0.4
	c0.1,0.2,0.3,0.3,0.4,0.6c0.4,0.2-0.1,0.6-0.1,0.8c0,0.1-0.1,0.1-0.2,0.1c-0.2,0.8-0.3,1.8-0.8,2.4c-0.2,0.7-0.3,1.8-0.1,2.6
	c0.2,1.4,0.8,2.6,1.4,3.6c0.4,0.5,0.7,1.1,1.3,1.3h0.1c0.1,0.2,0.3,0.1,0.4,0.2h0.1c0.2,0.1,0.2,0.4,0.4,0.5v0.1
	c0.5,0.3,0.9,0.6,1.5,0.8c0.2,0.1,0.4,0.1,0.5,0.3c0.8,0.2,1.1,0.8,2.1,0.6h0.9c0.4,0,0.7,0,1.1-0.1c0,0.1,0,0.5,0.1,0.6
	c0,0.1,0.4,0,0.4,0c0.2,0,0.2-0.1,0.4-0.1c0,0.1,0.1,0.1,0.1,0.1h0.2c0.1,0,0.6-0.1,0.7-0.1c0.4-0.2,0.7,0,1.1,0.1
	c0,0-0.1-0.1-0.1-0.2c0-0.2,0.3-0.4,0.5-0.4c0-0.1,0.1-0.1,0.1-0.1c0-0.1-0.1-0.1-0.1-0.1c0-0.1,0.3-0.1,0.2,0.1c0,0,0.1,0,0.1,0
	c0.2-0.1,0.2-0.3,0.4-0.3c0.5-0.1,0.8-0.4,1.1-0.7c0.1-0.1,0.1-0.1-0.1-0.1c0-0.1,0.1-0.1,0.1,0c0.2,0,0.1-0.3,0.2-0.4
	c0.1,0,0,0.1,0,0.2c0.2,0,0.2-0.5,0.5-0.4c0,0,0,0,0,0c0.1-0.1,0.2-0.2,0.3-0.2c0.2-0.1,0.4-0.3,0.5-0.6c-0.3,0,0.3-0.1,0-0.1
	c0.3-0.1,0.3-0.4,0.6-0.6C78.7,14.7,79,13.1,78.8,11.4"/>
<g>
	<path class="st0" d="M10.5,7.3H6.8v4.5c0,1.4,0.2,2.5,2,2.5c0.4,0,1.3-0.1,1.7-0.4v3.5c-0.9,0.3-1.9,0.4-2.9,0.4
		c-2.8,0-4.9-1.1-4.9-4.1V7.3H0V4h2.7V0h4.2v4h3.7V7.3z"/>
	<path class="st0" d="M19.9,15.8L19.9,15.8c-1,1.4-2.6,2-4.3,2c-2.5,0-4.8-1.4-4.8-4.2c0-4.7,5.7-4.8,9.2-4.8c0-1.5-1.2-2.4-2.7-2.4
		c-1.4,0-2.5,0.6-3.4,1.6l-2.2-2.3c1.5-1.4,3.8-2.2,6-2.2c4.9,0,6.2,2.5,6.2,7v6.9h-3.8V15.8z M18.9,11.6c-1.3,0-4.1,0.1-4.1,1.9
		c0,1,1.1,1.5,2,1.5c1.6,0,3.2-0.9,3.2-2.5v-0.9H18.9z"/>
	<path class="st0" d="M32.5,8c-0.6-0.8-1.4-1.1-2.4-1.1c-0.7,0-1.5,0.3-1.5,1.1c0,2,7,0.3,7,5.5c0,3.5-3.3,4.5-6.2,4.5
		c-1.9,0-4-0.5-5.3-1.8l2.5-2.8c0.8,0.9,1.7,1.5,3,1.5c0.9,0,1.9-0.3,1.9-1c0-2.2-7-0.3-7-5.5c0-3.2,2.8-4.6,5.7-4.6
		c1.8,0,3.8,0.4,5,1.8L32.5,8z"/>
	<path class="st0" d="M45.9,7.3h-3.7v4.5c0,1.4,0.2,2.5,2,2.5c0.4,0,1.3-0.1,1.7-0.4v3.5c-0.9,0.3-1.9,0.4-2.9,0.4
		c-2.8,0-4.9-1.1-4.9-4.1V7.3h-2.7V4H38V0h4.2v4h3.7V7.3z"/>
	<path class="st0" d="M59,15.2c-1.3,1.7-3.5,2.7-5.7,2.7c-4.2,0-7.5-2.8-7.5-7.1c0-4.3,3.3-7.1,7.5-7.1c3.9,0,6.3,2.8,6.3,7.1v1.3
		h-9.7c0.3,1.6,1.5,2.6,3.1,2.6c1.4,0,2.3-0.7,3-1.6L59,15.2z M55.4,9.2c0-1.4-1.1-2.6-2.6-2.6c-1.8,0-2.8,1.3-3,2.6H55.4z"/>
</g>
<path class="st1" d="M65.3,15c-0.2,0-0.3,0.1-0.3,0.3s0.2,0.3,0.3,0.3c0.2,0,0.3-0.1,0.3-0.3S65.5,15,65.3,15L65.3,15z M66.2,15.7
	h0.5l0.4-1H69l0.4,1h0.5l-1.6-3.9h-0.4L66.2,15.7L66.2,15.7z M68.8,14.3h-1.6l0.8-1.9l0,0L68.8,14.3L68.8,14.3z M73.1,11.8h-0.5v2.3
	c0,0.6-0.2,1.2-1,1.2c-0.8,0-1-0.6-1-1.2v-2.3h-0.5v2.4c0,0.8,0.4,1.6,1.5,1.6c1.1,0,1.5-0.7,1.5-1.6L73.1,11.8L73.1,11.8z"/>
<path class="st1" d="M62.7,10.2c-0.2,0-0.3,0.1-0.3,0.3s0.2,0.3,0.3,0.3c0.2,0,0.3-0.1,0.3-0.3S62.9,10.2,62.7,10.2L62.7,10.2z
	 M66.6,7.4c-0.3-0.4-0.8-0.6-1.4-0.6c-1.1,0-2,0.9-2,2c0,1.2,0.9,2,2,2c0.6,0,1.1-0.2,1.5-0.7L66.4,10c-0.3,0.4-0.6,0.6-1.1,0.6
	c-0.9,0-1.5-0.7-1.5-1.6c0-0.8,0.6-1.6,1.5-1.6c0.4,0,0.7,0.2,1,0.5L66.6,7.4L66.6,7.4z M69.1,10.9c1.2,0,2-0.9,2-2s-0.8-2-2-2
	s-2,0.9-2,2S67.9,10.9,69.1,10.9L69.1,10.9z M69.1,10.5c-0.9,0-1.5-0.7-1.5-1.6c0-0.9,0.6-1.6,1.5-1.6c0.9,0,1.5,0.7,1.5,1.6
	C70.6,9.8,69.9,10.5,69.1,10.5L69.1,10.5z M71.8,10.8h0.5V7.6l0,0l1.4,3.2h0.3l1.4-3.2l0,0v3.2h0.5V6.9h-0.7l-1.3,3l0,0l-1.3-3h-0.7
	L71.8,10.8L71.8,10.8z"/>
<g>
	<path class="st0" d="M81.9,8.7c0-0.3-0.1-0.4-0.4-0.4h-0.7V6.9h1.6c0.7,0,1.1,0.3,1.1,1v0.3c0,0.3,0,0.5,0,0.5h0c0.4-1,1.6-2,2.9-2
		c1.5,0,2.3,0.7,2.6,2h0c0.5-1,1.7-2,3.1-2c1.9,0,2.8,1.1,2.8,3.3v3.7c0,0.3,0.1,0.4,0.4,0.4H96v1.4h-1.6c-0.8,0-1.1-0.3-1.1-1.1
		v-4.1c0-1.2-0.2-2.2-1.5-2.2c-1.2,0-2.1,1-2.4,2.2c-0.1,0.4-0.1,0.7-0.1,1.2v3.9h-1.6v-5.1c0-1.1-0.2-2.2-1.5-2.2
		c-1.3,0-2.1,1.1-2.5,2.3c-0.1,0.3-0.1,0.7-0.1,1.1v3.9h-1.6V8.7z"/>
	<path class="st0" d="M102.2,10.1h0.4V10c0-1.5-0.6-2.1-1.9-2.1c-0.4,0-1.4,0.1-1.4,0.7v0.5h-1.5V8.3c0-1.4,2.1-1.6,3-1.6
		c2.8,0,3.5,1.5,3.5,3.4v3.7c0,0.3,0.1,0.4,0.4,0.4h0.7v1.4h-1.5c-0.8,0-1.1-0.4-1.1-1c0-0.3,0-0.5,0-0.5h0c0,0-0.7,1.7-2.7,1.7
		c-1.5,0-2.9-0.9-2.9-2.6C97,10.3,100.8,10.1,102.2,10.1z M100.3,14.4c1.4,0,2.3-1.5,2.3-2.7v-0.3h-0.4c-1.2,0-3.5,0.1-3.5,1.6
		C98.7,13.7,99.2,14.4,100.3,14.4z"/>
	<path class="st0" d="M110,6.7c2.1,0,2.8,1.3,2.8,1.3h0c0,0,0-0.1,0-0.3c0-0.5,0.3-0.9,1-0.9h1.6v1.4h-0.7c-0.2,0-0.4,0.1-0.4,0.3
		v6.5c0,2.8-2.2,3.9-4.3,3.9c-1,0-2.1-0.3-2.9-0.7l0.6-1.3c0,0,1.1,0.6,2.3,0.6c1.5,0,2.7-0.7,2.7-2.4v-0.6c0-0.3,0-0.5,0-0.5h0
		c-0.5,0.8-1.3,1.3-2.6,1.3c-2.4,0-3.8-1.9-3.8-4.4C106.3,8.5,107.6,6.7,110,6.7z M112.7,11c0-2.2-1.1-2.9-2.4-2.9
		c-1.5,0-2.3,1.1-2.3,2.8c0,1.8,0.9,3,2.5,3C111.6,14,112.7,13.2,112.7,11z"/>
	<path class="st0" d="M121.6,10.1h0.4V10c0-1.5-0.6-2.1-1.9-2.1c-0.4,0-1.4,0.1-1.4,0.7v0.5h-1.5V8.3c0-1.4,2.1-1.6,3-1.6
		c2.8,0,3.5,1.5,3.5,3.4v3.7c0,0.3,0.1,0.4,0.4,0.4h0.7v1.4h-1.5c-0.8,0-1.1-0.4-1.1-1c0-0.3,0-0.5,0-0.5h0c0,0-0.7,1.7-2.7,1.7
		c-1.5,0-2.9-0.9-2.9-2.6C116.4,10.3,120.1,10.1,121.6,10.1z M119.7,14.4c1.4,0,2.3-1.5,2.3-2.7v-0.3h-0.4c-1.2,0-3.5,0.1-3.5,1.6
		C118,13.7,118.6,14.4,119.7,14.4z"/>
	<path class="st0" d="M125.6,14.5l4.4-5.4c0.4-0.5,0.7-0.8,0.7-0.8v0c0,0-0.3,0-0.8,0h-2.3c-0.2,0-0.4,0.1-0.4,0.4v0.6h-1.5V8
		c0-0.8,0.3-1.1,1.1-1.1h6.2v1l-4.4,5.5c-0.4,0.4-0.7,0.8-0.7,0.8v0c0,0,0.3,0,0.8,0h2.8c0.2,0,0.4-0.1,0.4-0.4v-0.6h1.5v1.3
		c0,0.8-0.3,1.1-1.1,1.1h-6.5V14.5z"/>
	<path class="st0" d="M135.1,8.7c0-0.3-0.1-0.4-0.4-0.4H134V6.9h1.6c0.8,0,1.1,0.3,1.1,1.1v5.7c0,0.3,0.1,0.4,0.4,0.4h0.7v1.4h-1.6
		c-0.8,0-1.1-0.3-1.1-1.1V8.7z M135.1,3.5h1.5v1.7h-1.5V3.5z"/>
	<path class="st0" d="M139.7,8.7c0-0.3-0.1-0.4-0.4-0.4h-0.7V6.9h1.6c0.7,0,1.1,0.3,1.1,1v0.3c0,0.3,0,0.5,0,0.5h0
		c0.3-0.7,1.4-2,3.2-2c2,0,3,1.1,3,3.3v3.7c0,0.3,0.1,0.4,0.4,0.4h0.7v1.4h-1.6c-0.8,0-1.1-0.3-1.1-1.1v-4c0-1.2-0.2-2.2-1.6-2.2
		c-1.3,0-2.4,0.9-2.7,2.1c-0.1,0.3-0.2,0.7-0.2,1.2v4h-1.6V8.7z"/>
	<path class="st0" d="M153.8,6.7c2.4,0,3.7,1.8,3.7,4c0,0.2-0.1,0.7-0.1,0.7h-6.3c0.1,1.8,1.4,2.9,3,2.9c1.5,0,2.5-1,2.5-1l0.7,1.2
		c0,0-1.3,1.3-3.3,1.3c-2.7,0-4.6-2-4.6-4.5C149.5,8.4,151.4,6.7,153.8,6.7z M155.8,10.2c-0.1-1.4-1-2.2-2-2.2
		c-1.3,0-2.3,0.8-2.5,2.2H155.8z"/>
</g>
</svg>
